<svg width="19" height="19" viewBox="0 0 19 19" fill="none" xmlns="http://www.w3.org/2000/svg">
<path d="M17.9788 1.43062e-06H1.03976C0.74081 -0.000563689 0.466916 0.166334 0.330346 0.432128C0.191892 0.7015 0.216192 1.02588 0.393074 1.27189L6.59882 10.0141C6.60089 10.0171 6.60315 10.0199 6.60522 10.0229C6.8307 10.3273 6.95277 10.6962 6.95333 11.075V18.2024C6.95202 18.4134 7.0349 18.6163 7.18353 18.766C7.33234 18.9156 7.53465 19 7.74563 19C7.85281 18.9998 7.95905 18.9785 8.05814 18.9373L11.5453 17.6077C11.8576 17.5122 12.065 17.2174 12.065 16.8625V11.075C12.0656 10.6962 12.1876 10.3273 12.4129 10.0229C12.415 10.0199 12.4173 10.0171 12.4193 10.0141L18.6253 1.2717C18.8022 1.02588 18.8264 0.701689 18.688 0.432316C18.5516 0.166334 18.2775 -0.000563689 17.9788 1.43062e-06Z" fill="black"/>
</svg>
