<svg width="25" height="25" viewBox="0 0 25 25" fill="none" xmlns="http://www.w3.org/2000/svg">
<g clip-path="url(#clip0_5_769)">
<path d="M5.85938 12.5002C5.85938 11.2616 6.20063 10.1013 6.79351 9.10781V4.89355H2.57925C0.906641 7.06582 0 9.71323 0 12.5002C0 15.2873 0.906641 17.9347 2.57925 20.1069H6.79351V15.8927C6.20063 14.8992 5.85938 13.7389 5.85938 12.5002Z" fill="#FBBD00"/>
<path d="M12.5 19.1406L9.57031 22.0703L12.5 25C15.2871 25 17.9344 24.0933 20.1067 22.4207V18.2109H15.8969C14.8947 18.806 13.7295 19.1406 12.5 19.1406Z" fill="#0F9D58"/>
<path d="M6.7936 15.8926L2.57935 20.1068C2.9105 20.5369 3.27109 20.9488 3.66128 21.339C6.02222 23.6999 9.16123 25.0001 12.5001 25.0001V19.1408C10.0771 19.1408 7.95337 17.8361 6.7936 15.8926Z" fill="#31AA52"/>
<path d="M25 12.4998C25 11.7393 24.9312 10.9774 24.7953 10.2353L24.6854 9.63477H12.5V15.4941H18.4303C17.8544 16.6397 16.9689 17.5743 15.8969 18.2108L20.1066 22.4206C20.5367 22.0895 20.9486 21.7289 21.3388 21.3387C23.6998 18.9777 25 15.8387 25 12.4998Z" fill="#3C79E6"/>
<path d="M17.1957 7.80435L17.7135 8.32222L21.8567 4.17905L21.3389 3.66118C18.9779 1.30024 15.8389 0 12.5 0L9.57031 2.92969L12.5 5.85938C14.2737 5.85938 15.9414 6.5501 17.1957 7.80435Z" fill="#CF2D48"/>
<path d="M12.4999 5.85938V0C9.16104 0 6.02202 1.30024 3.66104 3.66113C3.27085 4.05132 2.91025 4.46318 2.5791 4.89331L6.79336 9.10757C7.95318 7.16406 10.0769 5.85938 12.4999 5.85938Z" fill="#EB4132"/>
</g>
<defs>
<clipPath id="clip0_5_769">
<rect width="25" height="25" fill="white"/>
</clipPath>
</defs>
</svg>
