<svg width="113" height="40" viewBox="0 0 113 40" fill="none" xmlns="http://www.w3.org/2000/svg">
<mask id="mask0_8_1131" style="mask-type:luminance" maskUnits="userSpaceOnUse" x="24" y="3" width="56" height="19">
<path d="M24.092 3.17773H79.7919V21.9657H24.092V3.17773Z" fill="white"/>
</mask>
<g mask="url(#mask0_8_1131)">
<path fill-rule="evenodd" clip-rule="evenodd" d="M25.093 21.8998L51.9371 4.53305L78.7828 21.8998C79.0604 22.0794 79.4325 22.0008 79.6122 21.7217C79.7919 21.4442 79.7117 21.0736 79.4341 20.8939L52.2644 3.31549C52.0655 3.18715 51.8104 3.18715 51.6131 3.31549L24.4417 20.8939C24.1642 21.0736 24.084 21.4442 24.2636 21.7217C24.4449 22.0008 24.8155 22.0794 25.093 21.8998Z" fill="#302D2D"/>
</g>
<mask id="mask1_8_1131" style="mask-type:luminance" maskUnits="userSpaceOnUse" x="57" y="3" width="34" height="19">
<path d="M57.616 3.26123H90.0041V21.7412H57.616V3.26123Z" fill="white"/>
</mask>
<g mask="url(#mask1_8_1131)">
<path fill-rule="evenodd" clip-rule="evenodd" d="M58.5752 8.08474L63.5128 4.88924L88.8924 21.5389C89.1699 21.7218 89.542 21.6432 89.7233 21.3672C89.9046 21.0897 89.8276 20.7192 89.5501 20.5363L63.8433 3.67328C63.646 3.54174 63.3893 3.54174 63.1888 3.67007C63.1888 3.67007 61.0039 5.08495 57.9239 7.07732C57.6448 7.25699 57.5662 7.62915 57.7459 7.90668C57.9255 8.1842 58.2977 8.2644 58.5752 8.08474Z" fill="#302D2D"/>
</g>
<path fill-rule="evenodd" clip-rule="evenodd" d="M39.675 11.9285V7.39997C39.675 7.07112 39.4071 6.80322 39.0766 6.80322H34.0812C33.7508 6.80322 33.4845 7.07112 33.4845 7.39997V15.3711C33.4845 15.6999 33.7508 15.9678 34.0812 15.9678C34.4117 15.9678 34.6796 15.6999 34.6796 15.3711V7.99672H38.4799V11.9285C38.4799 12.2574 38.7478 12.5253 39.0766 12.5253C39.4071 12.5253 39.675 12.2574 39.675 11.9285Z" fill="#302D2D"/>
<path d="M10.7853 25.813V26.506H9.02071V32.2874H8.18013V26.506H6.40271V25.813H10.7853Z" fill="#302D2D"/>
<path d="M16.8216 26.5061V28.6685H19.1829V29.3615H16.8216V31.5881H19.4589V32.2875H15.9746V25.8066H19.4589V26.5061H16.8216Z" fill="#302D2D"/>
<path d="M28.2959 32.2874L26.7559 29.6437H25.7357V32.2874H24.8887V25.813H26.9805C27.4682 25.813 27.8804 25.8996 28.2189 26.0697C28.5558 26.2365 28.8093 26.4643 28.9761 26.7498C29.1429 27.0322 29.2263 27.3562 29.2263 27.7187C29.2263 28.1647 29.098 28.5577 28.8413 28.8994C28.5847 29.2379 28.1997 29.4625 27.6863 29.5732L29.3098 32.2874H28.2959ZM25.7357 28.9636H26.9805C27.4377 28.9636 27.7794 28.8513 28.0072 28.6235C28.2382 28.3973 28.3537 28.0957 28.3537 27.7187C28.3537 27.3337 28.2398 27.037 28.0136 26.8268C27.7906 26.6183 27.4457 26.5124 26.9805 26.5124H25.7357V28.9636Z" fill="#302D2D"/>
<path d="M38.0919 32.2874L36.5519 29.6437H35.5317V32.2874H34.6847V25.813H36.7765C37.2642 25.813 37.6765 25.8996 38.0149 26.0697C38.3518 26.2365 38.6053 26.4643 38.7721 26.7498C38.9389 27.0322 39.0224 27.3562 39.0224 27.7187C39.0224 28.1647 38.894 28.5577 38.6374 28.8994C38.3807 29.2379 37.9957 29.4625 37.4824 29.5732L39.1058 32.2874H38.0919ZM35.5317 28.9636H36.7765C37.2337 28.9636 37.5754 28.8513 37.8032 28.6235C38.0342 28.3973 38.1497 28.0957 38.1497 27.7187C38.1497 27.3337 38.0358 27.037 37.8096 26.8268C37.5866 26.6183 37.2417 26.5124 36.7765 26.5124H35.5317V28.9636Z" fill="#302D2D"/>
<path d="M48.3114 30.8501H45.4881L44.9683 32.2875H44.0764L46.4121 25.8516H47.3874L49.7231 32.2875H48.8312L48.3114 30.8501ZM48.0676 30.1636L46.8997 26.8911L45.7255 30.1636H48.0676Z" fill="#302D2D"/>
<path d="M55.7364 31.6008H58.0015V32.2874H54.8894V25.813H55.7364V31.6008Z" fill="#302D2D"/>
<path d="M63.8985 26.5061V28.6685H66.2598V29.3615H63.8985V31.5881H66.5358V32.2875H63.0515V25.8066H66.5358V26.5061H63.8985Z" fill="#302D2D"/>
<path d="M73.9804 25.813C74.6862 25.813 75.2974 25.9461 75.8156 26.2108C76.3321 26.4723 76.7283 26.8493 77.0027 27.3402C77.2802 27.8278 77.4197 28.4037 77.4197 29.0662C77.4197 29.7304 77.2802 30.3047 77.0027 30.7923C76.7283 31.2768 76.3321 31.6457 75.8156 31.9024C75.2974 32.1591 74.6862 32.2874 73.9804 32.2874H71.9656V25.813H73.9804ZM73.9804 31.588C74.8178 31.588 75.4562 31.3682 75.8926 30.9271C76.3321 30.4875 76.5535 29.8667 76.5535 29.0662C76.5535 28.2626 76.3305 27.6353 75.8862 27.1862C75.445 26.7338 74.8098 26.506 73.9804 26.506H72.8126V31.588H73.9804Z" fill="#302D2D"/>
<path d="M87.583 27.6933C87.4033 27.3132 87.1418 27.0196 86.8001 26.8143C86.4616 26.6089 86.0686 26.5063 85.6195 26.5063C85.1655 26.5063 84.7564 26.6089 84.3939 26.8143C84.0345 27.0196 83.749 27.318 83.5405 27.7062C83.3351 28.0912 83.2325 28.5387 83.2325 29.0473C83.2325 29.5574 83.3351 30.0033 83.5405 30.3883C83.749 30.7701 84.0345 31.0653 84.3939 31.2738C84.7564 31.4792 85.1655 31.5818 85.6195 31.5818C86.2483 31.5818 86.7648 31.3942 87.1723 31.0172C87.583 30.637 87.822 30.1253 87.891 29.4836H85.3115V28.797H88.7957V29.4451C88.7444 29.9809 88.5743 30.4702 88.2888 30.9145C88.0065 31.3557 87.6311 31.7038 87.1659 31.9604C86.7039 32.2171 86.1873 32.3454 85.6195 32.3454C85.0163 32.3454 84.4661 32.2043 83.9704 31.9219C83.4779 31.6396 83.0865 31.2482 82.7961 30.7477C82.509 30.2472 82.3662 29.6809 82.3662 29.0473C82.3662 28.4152 82.509 27.8473 82.7961 27.3468C83.0865 26.8431 83.4779 26.4485 83.9704 26.1662C84.4661 25.8838 85.0163 25.7427 85.6195 25.7427C86.3028 25.7427 86.9108 25.9143 87.4418 26.256C87.9712 26.5945 88.3562 27.0741 88.5968 27.6933H87.583Z" fill="#302D2D"/>
<path d="M94.9018 26.5061V28.6685H97.2631V29.3615H94.9018V31.5881H97.5391V32.2875H94.0548V25.8066H97.5391V26.5061H94.9018Z" fill="#302D2D"/>
<path d="M106.376 32.2874L104.836 29.6437H103.816V32.2874H102.969V25.813H105.061C105.548 25.813 105.961 25.8996 106.299 26.0697C106.636 26.2365 106.889 26.4643 107.056 26.7498C107.223 27.0322 107.307 27.3562 107.307 27.7187C107.307 28.1647 107.178 28.5577 106.922 28.8994C106.665 29.2379 106.28 29.4625 105.767 29.5732L107.39 32.2874H106.376ZM103.816 28.9636H105.061C105.518 28.9636 105.86 28.8513 106.087 28.6235C106.318 28.3973 106.434 28.0957 106.434 27.7187C106.434 27.3337 106.32 27.037 106.094 26.8268C105.871 26.6183 105.526 26.5124 105.061 26.5124H103.816V28.9636Z" fill="#302D2D"/>
</svg>
