<svg width="15" height="15" viewBox="0 0 15 15" fill="none" xmlns="http://www.w3.org/2000/svg">
<path d="M9.94287 7.57699L14.9997 10.7739V4.24512L9.94287 7.57699Z" fill="#434FAA"/>
<path d="M0 4.24512V10.7739L5.05688 7.57699L0 4.24512Z" fill="#434FAA"/>
<path d="M14.0627 2.34375H0.937695C0.469883 2.34375 0.0986328 2.6925 0.0283203 3.14156L7.5002 8.06437L14.9721 3.14156C14.9018 2.6925 14.5305 2.34375 14.0627 2.34375Z" fill="#434FAA"/>
<path d="M9.08465 8.14303L7.75809 9.01678C7.67934 9.06834 7.59027 9.09365 7.50027 9.09365C7.41027 9.09365 7.32121 9.06834 7.24246 9.01678L5.9159 8.14209L0.0302734 11.8649C0.102461 12.3102 0.471836 12.6562 0.937773 12.6562H14.0628C14.5287 12.6562 14.8981 12.3102 14.9703 11.8649L9.08465 8.14303Z" fill="#434FAA"/>
</svg>
