<svg width="106" height="98" viewBox="0 0 106 98" fill="none" xmlns="http://www.w3.org/2000/svg">
<circle cx="53" cy="30" r="30" fill="#FECD4C"/>
<g clip-path="url(#clip0_5_813)">
<path d="M53 23.75C52.3096 23.75 51.75 24.3096 51.75 25V28.75C51.75 29.4403 52.3096 30 53 30C53.6903 30 54.25 29.4403 54.25 28.75V25C54.25 24.3097 53.6903 23.75 53 23.75Z" fill="white"/>
<path d="M53 20C52.31 20 51.75 20.56 51.75 21.25C51.75 21.94 52.31 22.5 53 22.5C53.69 22.5 54.25 21.94 54.25 21.25C54.25 20.56 53.69 20 53 20Z" fill="white"/>
<path d="M53 15C47.4771 15 43 19.4771 43 25C43 27.1194 43.9612 30.0073 45.6679 33.5545C46.2224 34.7067 46.8474 35.9088 47.5305 37.1469C48.5 38.9039 49.5371 40.6467 50.5742 42.2981C50.9373 42.8763 51.2747 43.402 51.5778 43.8656C51.7606 44.1452 51.8922 44.343 51.9638 44.4492C52.4577 45.1812 53.5342 45.1842 54.0323 44.455C54.1041 44.3498 54.2358 44.154 54.4188 43.8772C54.7221 43.4183 55.0596 42.8976 55.4229 42.3246C56.4606 40.6877 57.4983 38.957 58.4682 37.2077C59.1894 35.907 59.8458 34.6441 60.4224 33.4351C62.0725 29.9756 63 27.1297 63 25C63 19.4771 58.5229 15 53 15ZM58.1659 32.3589C57.6126 33.5188 56.9795 34.737 56.2818 35.9954C55.3377 37.6982 54.3246 39.3879 53.3114 40.986C53.2071 41.1504 53.1051 41.3105 53.0055 41.4657C52.9032 41.3049 52.7985 41.1391 52.6913 40.9685C51.6777 39.3546 50.6641 37.6513 49.7195 35.9391C49.0577 34.7396 48.4537 33.5782 47.9208 32.4705C46.3674 29.2421 45.5 26.6361 45.5 25C45.5 20.8579 48.8579 17.5 53 17.5C57.1422 17.5 60.5 20.8579 60.5 25C60.5 26.6551 59.6662 29.2136 58.1659 32.3589Z" fill="white"/>
</g>
<path d="M23.2871 80.0801H27.3301V81H22.1562V72.4688H23.2871V80.0801ZM31.0742 81.1172C30.2148 81.1172 29.5156 80.8359 28.9766 80.2734C28.4375 79.707 28.168 78.9512 28.168 78.0059V77.8066C28.168 77.1777 28.2871 76.6172 28.5254 76.125C28.7676 75.6289 29.1035 75.2422 29.5332 74.9648C29.9668 74.6836 30.4355 74.543 30.9395 74.543C31.7637 74.543 32.4043 74.8145 32.8613 75.3574C33.3184 75.9004 33.5469 76.6777 33.5469 77.6895V78.1406H29.252C29.2676 78.7656 29.4492 79.2715 29.7969 79.6582C30.1484 80.041 30.5938 80.2324 31.1328 80.2324C31.5156 80.2324 31.8398 80.1543 32.1055 79.998C32.3711 79.8418 32.6035 79.6348 32.8027 79.377L33.4648 79.8926C32.9336 80.709 32.1367 81.1172 31.0742 81.1172ZM30.9395 75.4336C30.502 75.4336 30.1348 75.5938 29.8379 75.9141C29.541 76.2305 29.3574 76.6758 29.2871 77.25H32.4629V77.168C32.4316 76.6172 32.2832 76.1914 32.0176 75.8906C31.752 75.5859 31.3926 75.4336 30.9395 75.4336ZM38.7207 81C38.6582 80.875 38.6074 80.6523 38.5684 80.332C38.0645 80.8555 37.4629 81.1172 36.7637 81.1172C36.1387 81.1172 35.625 80.9414 35.2227 80.5898C34.8242 80.2344 34.625 79.7852 34.625 79.2422C34.625 78.582 34.875 78.0703 35.375 77.707C35.8789 77.3398 36.5859 77.1562 37.4961 77.1562H38.5508V76.6582C38.5508 76.2793 38.4375 75.9785 38.2109 75.7559C37.9844 75.5293 37.6504 75.416 37.209 75.416C36.8223 75.416 36.498 75.5137 36.2363 75.709C35.9746 75.9043 35.8438 76.1406 35.8438 76.418H34.7539C34.7539 76.1016 34.8652 75.7969 35.0879 75.5039C35.3145 75.207 35.6191 74.9727 36.002 74.8008C36.3887 74.6289 36.8125 74.543 37.2734 74.543C38.0039 74.543 38.5762 74.7266 38.9902 75.0938C39.4043 75.457 39.6191 75.959 39.6348 76.5996V79.5176C39.6348 80.0996 39.709 80.5625 39.8574 80.9062V81H38.7207ZM36.9219 80.1738C37.2617 80.1738 37.584 80.0859 37.8887 79.9102C38.1934 79.7344 38.4141 79.5059 38.5508 79.2246V77.9238H37.7012C36.373 77.9238 35.709 78.3125 35.709 79.0898C35.709 79.4297 35.8223 79.6953 36.0488 79.8867C36.2754 80.0781 36.5664 80.1738 36.9219 80.1738ZM44.3984 75.6328C44.2344 75.6055 44.0566 75.5918 43.8652 75.5918C43.1543 75.5918 42.6719 75.8945 42.418 76.5V81H41.334V74.6602H42.3887L42.4062 75.3926C42.7617 74.8262 43.2656 74.543 43.918 74.543C44.1289 74.543 44.2891 74.5703 44.3984 74.625V75.6328ZM46.4258 74.6602L46.4609 75.457C46.9453 74.8477 47.5781 74.543 48.3594 74.543C49.6992 74.543 50.375 75.2988 50.3867 76.8105V81H49.3027V76.8047C49.2988 76.3477 49.1934 76.0098 48.9863 75.791C48.7832 75.5723 48.4648 75.4629 48.0312 75.4629C47.6797 75.4629 47.3711 75.5566 47.1055 75.7441C46.8398 75.9316 46.6328 76.1777 46.4844 76.4824V81H45.4004V74.6602H46.4258ZM58.9121 81C58.8496 80.875 58.7988 80.6523 58.7598 80.332C58.2559 80.8555 57.6543 81.1172 56.9551 81.1172C56.3301 81.1172 55.8164 80.9414 55.4141 80.5898C55.0156 80.2344 54.8164 79.7852 54.8164 79.2422C54.8164 78.582 55.0664 78.0703 55.5664 77.707C56.0703 77.3398 56.7773 77.1562 57.6875 77.1562H58.7422V76.6582C58.7422 76.2793 58.6289 75.9785 58.4023 75.7559C58.1758 75.5293 57.8418 75.416 57.4004 75.416C57.0137 75.416 56.6895 75.5137 56.4277 75.709C56.166 75.9043 56.0352 76.1406 56.0352 76.418H54.9453C54.9453 76.1016 55.0566 75.7969 55.2793 75.5039C55.5059 75.207 55.8105 74.9727 56.1934 74.8008C56.5801 74.6289 57.0039 74.543 57.4648 74.543C58.1953 74.543 58.7676 74.7266 59.1816 75.0938C59.5957 75.457 59.8105 75.959 59.8262 76.5996V79.5176C59.8262 80.0996 59.9004 80.5625 60.0488 80.9062V81H58.9121ZM57.1133 80.1738C57.4531 80.1738 57.7754 80.0859 58.0801 79.9102C58.3848 79.7344 58.6055 79.5059 58.7422 79.2246V77.9238H57.8926C56.5645 77.9238 55.9004 78.3125 55.9004 79.0898C55.9004 79.4297 56.0137 79.6953 56.2402 79.8867C56.4668 80.0781 56.7578 80.1738 57.1133 80.1738ZM66.8926 77.9004C66.8926 78.8691 66.6699 79.6484 66.2246 80.2383C65.7793 80.8242 65.1816 81.1172 64.4316 81.1172C63.6309 81.1172 63.0117 80.834 62.5742 80.2676L62.5215 81H61.5254V72H62.6094V75.3574C63.0469 74.8145 63.6504 74.543 64.4199 74.543C65.1895 74.543 65.793 74.834 66.2305 75.416C66.6719 75.998 66.8926 76.7949 66.8926 77.8066V77.9004ZM65.8086 77.7773C65.8086 77.0391 65.666 76.4688 65.3809 76.0664C65.0957 75.6641 64.6855 75.4629 64.1504 75.4629C63.4355 75.4629 62.9219 75.7949 62.6094 76.459V79.2012C62.9414 79.8652 63.459 80.1973 64.1621 80.1973C64.6816 80.1973 65.0859 79.9961 65.375 79.5938C65.6641 79.1914 65.8086 78.5859 65.8086 77.7773ZM67.9766 77.7715C67.9766 77.1504 68.0977 76.5918 68.3398 76.0957C68.5859 75.5996 68.9258 75.2168 69.3594 74.9473C69.7969 74.6777 70.2949 74.543 70.8535 74.543C71.7168 74.543 72.4141 74.8418 72.9453 75.4395C73.4805 76.0371 73.748 76.832 73.748 77.8242V77.9004C73.748 78.5176 73.6289 79.0723 73.3906 79.5645C73.1562 80.0527 72.8184 80.4336 72.377 80.707C71.9395 80.9805 71.4355 81.1172 70.8652 81.1172C70.0059 81.1172 69.3086 80.8184 68.7734 80.2207C68.2422 79.623 67.9766 78.832 67.9766 77.8477V77.7715ZM69.0664 77.9004C69.0664 78.6035 69.2285 79.168 69.5527 79.5938C69.8809 80.0195 70.3184 80.2324 70.8652 80.2324C71.416 80.2324 71.8535 80.0176 72.1777 79.5879C72.502 79.1543 72.6641 78.5488 72.6641 77.7715C72.6641 77.0762 72.498 76.5137 72.166 76.084C71.8379 75.6504 71.4004 75.4336 70.8535 75.4336C70.3184 75.4336 69.8867 75.6465 69.5586 76.0723C69.2305 76.498 69.0664 77.1074 69.0664 77.9004ZM79.0215 80.373C78.5996 80.8691 77.9805 81.1172 77.1641 81.1172C76.4883 81.1172 75.9727 80.9219 75.6172 80.5312C75.2656 80.1367 75.0879 79.5547 75.084 78.7852V74.6602H76.168V78.7559C76.168 79.7168 76.5586 80.1973 77.3398 80.1973C78.168 80.1973 78.7188 79.8887 78.9922 79.2715V74.6602H80.0762V81H79.0449L79.0215 80.373ZM83.1992 73.125V74.6602H84.3828V75.498H83.1992V79.4297C83.1992 79.6836 83.252 79.875 83.3574 80.0039C83.4629 80.1289 83.6426 80.1914 83.8965 80.1914C84.0215 80.1914 84.1934 80.168 84.4121 80.1211V81C84.127 81.0781 83.8496 81.1172 83.5801 81.1172C83.0957 81.1172 82.7305 80.9707 82.4844 80.6777C82.2383 80.3848 82.1152 79.9688 82.1152 79.4297V75.498H80.9609V74.6602H82.1152V73.125H83.1992ZM31.9766 95H30.8926V86H31.9766V95ZM33.4297 91.7715C33.4297 91.1504 33.5508 90.5918 33.793 90.0957C34.0391 89.5996 34.3789 89.2168 34.8125 88.9473C35.25 88.6777 35.748 88.543 36.3066 88.543C37.1699 88.543 37.8672 88.8418 38.3984 89.4395C38.9336 90.0371 39.2012 90.832 39.2012 91.8242V91.9004C39.2012 92.5176 39.082 93.0723 38.8438 93.5645C38.6094 94.0527 38.2715 94.4336 37.8301 94.707C37.3926 94.9805 36.8887 95.1172 36.3184 95.1172C35.459 95.1172 34.7617 94.8184 34.2266 94.2207C33.6953 93.623 33.4297 92.832 33.4297 91.8477V91.7715ZM34.5195 91.9004C34.5195 92.6035 34.6816 93.168 35.0059 93.5938C35.334 94.0195 35.7715 94.2324 36.3184 94.2324C36.8691 94.2324 37.3066 94.0176 37.6309 93.5879C37.9551 93.1543 38.1172 92.5488 38.1172 91.7715C38.1172 91.0762 37.9512 90.5137 37.6191 90.084C37.291 89.6504 36.8535 89.4336 36.3066 89.4336C35.7715 89.4336 35.3398 89.6465 35.0117 90.0723C34.6836 90.498 34.5195 91.1074 34.5195 91.9004ZM43.1035 94.2324C43.4902 94.2324 43.8281 94.1152 44.1172 93.8809C44.4062 93.6465 44.5664 93.3535 44.5977 93.002H45.623C45.6035 93.3652 45.4785 93.7109 45.248 94.0391C45.0176 94.3672 44.709 94.6289 44.3223 94.8242C43.9395 95.0195 43.5332 95.1172 43.1035 95.1172C42.2402 95.1172 41.5527 94.8301 41.041 94.2559C40.5332 93.6777 40.2793 92.8887 40.2793 91.8887V91.707C40.2793 91.0898 40.3926 90.541 40.6191 90.0605C40.8457 89.5801 41.1699 89.207 41.5918 88.9414C42.0176 88.6758 42.5195 88.543 43.0977 88.543C43.8086 88.543 44.3984 88.7559 44.8672 89.1816C45.3398 89.6074 45.5918 90.1602 45.623 90.8398H44.5977C44.5664 90.4297 44.4102 90.0938 44.1289 89.832C43.8516 89.5664 43.5078 89.4336 43.0977 89.4336C42.5469 89.4336 42.1191 89.6328 41.8145 90.0312C41.5137 90.4258 41.3633 90.998 41.3633 91.748V91.9531C41.3633 92.6836 41.5137 93.2461 41.8145 93.6406C42.1152 94.0352 42.5449 94.2324 43.1035 94.2324ZM50.7559 95C50.6934 94.875 50.6426 94.6523 50.6035 94.332C50.0996 94.8555 49.498 95.1172 48.7988 95.1172C48.1738 95.1172 47.6602 94.9414 47.2578 94.5898C46.8594 94.2344 46.6602 93.7852 46.6602 93.2422C46.6602 92.582 46.9102 92.0703 47.4102 91.707C47.9141 91.3398 48.6211 91.1562 49.5312 91.1562H50.5859V90.6582C50.5859 90.2793 50.4727 89.9785 50.2461 89.7559C50.0195 89.5293 49.6855 89.416 49.2441 89.416C48.8574 89.416 48.5332 89.5137 48.2715 89.709C48.0098 89.9043 47.8789 90.1406 47.8789 90.418H46.7891C46.7891 90.1016 46.9004 89.7969 47.123 89.5039C47.3496 89.207 47.6543 88.9727 48.0371 88.8008C48.4238 88.6289 48.8477 88.543 49.3086 88.543C50.0391 88.543 50.6113 88.7266 51.0254 89.0938C51.4395 89.457 51.6543 89.959 51.6699 90.5996V93.5176C51.6699 94.0996 51.7441 94.5625 51.8926 94.9062V95H50.7559ZM48.957 94.1738C49.2969 94.1738 49.6191 94.0859 49.9238 93.9102C50.2285 93.7344 50.4492 93.5059 50.5859 93.2246V91.9238H49.7363C48.4082 91.9238 47.7441 92.3125 47.7441 93.0898C47.7441 93.4297 47.8574 93.6953 48.084 93.8867C48.3105 94.0781 48.6016 94.1738 48.957 94.1738ZM54.8398 87.125V88.6602H56.0234V89.498H54.8398V93.4297C54.8398 93.6836 54.8926 93.875 54.998 94.0039C55.1035 94.1289 55.2832 94.1914 55.5371 94.1914C55.6621 94.1914 55.834 94.168 56.0527 94.1211V95C55.7676 95.0781 55.4902 95.1172 55.2207 95.1172C54.7363 95.1172 54.3711 94.9707 54.125 94.6777C53.8789 94.3848 53.7559 93.9688 53.7559 93.4297V89.498H52.6016V88.6602H53.7559V87.125H54.8398ZM58.4727 95H57.3887V88.6602H58.4727V95ZM57.3008 86.9785C57.3008 86.8027 57.3535 86.6543 57.459 86.5332C57.5684 86.4121 57.7285 86.3516 57.9395 86.3516C58.1504 86.3516 58.3105 86.4121 58.4199 86.5332C58.5293 86.6543 58.584 86.8027 58.584 86.9785C58.584 87.1543 58.5293 87.3008 58.4199 87.418C58.3105 87.5352 58.1504 87.5938 57.9395 87.5938C57.7285 87.5938 57.5684 87.5352 57.459 87.418C57.3535 87.3008 57.3008 87.1543 57.3008 86.9785ZM59.9258 91.7715C59.9258 91.1504 60.0469 90.5918 60.2891 90.0957C60.5352 89.5996 60.875 89.2168 61.3086 88.9473C61.7461 88.6777 62.2441 88.543 62.8027 88.543C63.666 88.543 64.3633 88.8418 64.8945 89.4395C65.4297 90.0371 65.6973 90.832 65.6973 91.8242V91.9004C65.6973 92.5176 65.5781 93.0723 65.3398 93.5645C65.1055 94.0527 64.7676 94.4336 64.3262 94.707C63.8887 94.9805 63.3848 95.1172 62.8145 95.1172C61.9551 95.1172 61.2578 94.8184 60.7227 94.2207C60.1914 93.623 59.9258 92.832 59.9258 91.8477V91.7715ZM61.0156 91.9004C61.0156 92.6035 61.1777 93.168 61.502 93.5938C61.8301 94.0195 62.2676 94.2324 62.8145 94.2324C63.3652 94.2324 63.8027 94.0176 64.127 93.5879C64.4512 93.1543 64.6133 92.5488 64.6133 91.7715C64.6133 91.0762 64.4473 90.5137 64.1152 90.084C63.7871 89.6504 63.3496 89.4336 62.8027 89.4336C62.2676 89.4336 61.8359 89.6465 61.5078 90.0723C61.1797 90.498 61.0156 91.1074 61.0156 91.9004ZM68.082 88.6602L68.1172 89.457C68.6016 88.8477 69.2344 88.543 70.0156 88.543C71.3555 88.543 72.0312 89.2988 72.043 90.8105V95H70.959V90.8047C70.9551 90.3477 70.8496 90.0098 70.6426 89.791C70.4395 89.5723 70.1211 89.4629 69.6875 89.4629C69.3359 89.4629 69.0273 89.5566 68.7617 89.7441C68.4961 89.9316 68.2891 90.1777 68.1406 90.4824V95H67.0566V88.6602H68.082ZM73.7012 94.4316C73.7012 94.2441 73.7559 94.0879 73.8652 93.9629C73.9785 93.8379 74.1465 93.7754 74.3691 93.7754C74.5918 93.7754 74.7598 93.8379 74.873 93.9629C74.9902 94.0879 75.0488 94.2441 75.0488 94.4316C75.0488 94.6113 74.9902 94.7617 74.873 94.8828C74.7598 95.0039 74.5918 95.0645 74.3691 95.0645C74.1465 95.0645 73.9785 95.0039 73.8652 94.8828C73.7559 94.7617 73.7012 94.6113 73.7012 94.4316Z" fill="black"/>
<defs>
<clipPath id="clip0_5_813">
<rect width="30" height="30" fill="white" transform="translate(38 15)"/>
</clipPath>
</defs>
</svg>
