<svg width="106" height="112" viewBox="0 0 106 112" fill="none" xmlns="http://www.w3.org/2000/svg">
<circle cx="53" cy="30" r="30" fill="#434FAA"/>
<g clip-path="url(#clip0_5_796)">
<path d="M65.3209 40.4289L61.7545 33.1311C61.7952 32.878 61.8123 32.6233 61.8179 32.379C63.574 31.6003 64.1367 30.4586 63.4089 28.5645C64.7556 27.1443 64.7759 25.8185 63.4248 24.3878C64.1351 22.5278 63.5836 21.3211 61.8178 20.5345C61.7709 18.6279 60.9339 17.6686 58.8928 17.6206C58.1164 15.8563 56.9748 15.294 55.0905 16.0221C53.7086 14.7034 52.3826 14.6214 50.9257 16.0062C49.0956 15.3033 47.878 15.8267 47.0847 17.6207C45.0733 17.6714 44.2267 18.6203 44.1822 20.5572C42.4262 21.3358 41.8635 22.4773 42.5912 24.3716C41.2446 25.7919 41.2241 27.1176 42.5754 28.5483C41.865 30.4083 42.4166 31.615 44.1824 32.4017C44.1882 32.6393 44.2051 32.8867 44.2447 33.133L40.6793 40.4289C40.3819 41.0373 40.8576 41.7389 41.5302 41.6915L45.3435 41.4252L47.4771 44.6104C47.8553 45.175 48.702 45.114 48.9979 44.5055L52.2556 37.8044C52.7511 37.9766 53.2508 37.9761 53.7449 37.805L57.0023 44.5055C57.299 45.1158 58.1468 45.172 58.523 44.6104L60.6566 41.4251L64.47 41.6914C65.143 41.739 65.6181 41.037 65.3209 40.4289ZM48.086 42.3609L46.5206 40.024C46.3453 39.7624 46.0434 39.6143 45.7291 39.6363L42.9275 39.832L45.3381 34.8991C45.8784 35.2231 46.5221 35.3019 47.1073 35.3156C47.8461 36.9943 48.9364 37.6071 50.6958 36.9925L48.086 42.3609ZM51.7534 35.2674C51.4995 35.0019 51.1064 34.9215 50.7677 35.0688C50.3096 35.2678 49.6175 35.5686 49.3014 35.4373C48.9831 35.3049 48.701 34.588 48.5143 34.1136C48.3801 33.7725 48.0487 33.5526 47.6818 33.5566C47.1746 33.565 46.4082 33.5778 46.1649 33.3336C45.9209 33.0887 45.933 32.3296 45.9411 31.8272C45.9469 31.4605 45.7244 31.1287 45.3829 30.9949C43.842 30.3912 43.7601 30.2041 44.4188 28.6936C44.5656 28.357 44.4877 27.9647 44.2234 27.7098C43.0397 26.5679 43.0441 26.3624 44.2385 25.2119C44.5022 24.9578 44.5808 24.567 44.4357 24.2308C44.2367 23.7697 43.9361 23.0729 44.0685 22.752C44.2007 22.4317 44.9144 22.1487 45.3866 21.9614C45.7265 21.8266 45.9474 21.4956 45.9415 21.1301C45.9331 20.6196 45.9204 19.8481 46.165 19.6025C46.4077 19.359 47.162 19.3712 47.6609 19.3792C48.0281 19.3829 48.361 19.1616 48.4942 18.8189C49.0953 17.2732 49.2781 17.1909 50.7794 17.8505C51.1176 17.9991 51.5124 17.9204 51.7678 17.6536C52.8994 16.4717 53.1044 16.4739 54.2468 17.6688C54.5013 17.935 54.8948 18.0142 55.2326 17.8674C55.6905 17.6683 56.3826 17.3673 56.6987 17.4989C57.017 17.6313 57.2992 18.3482 57.486 18.8227C57.6167 19.155 57.9399 19.384 58.3183 19.3795C58.8255 19.371 59.592 19.3585 59.8353 19.6026C60.0794 19.8476 60.0672 20.6067 60.0592 21.109C60.0533 21.4757 60.2758 21.8075 60.6173 21.9413C62.1581 22.545 62.2401 22.7322 61.5814 24.2426C61.4346 24.5793 61.5125 24.9716 61.7768 25.2265C62.9606 26.3684 62.9561 26.5738 61.7618 27.7243C61.498 27.9783 61.4195 28.3692 61.5645 28.7054C61.7635 29.1665 62.0641 29.8633 61.9317 30.1842C61.7994 30.5046 61.0858 30.7876 60.6136 30.9748C60.2737 31.1096 60.0528 31.4407 60.0587 31.8062C60.0671 32.3167 60.0798 33.0881 59.8352 33.3337C59.5925 33.5773 58.8384 33.5652 58.3393 33.5571C57.9729 33.5534 57.6392 33.7747 57.5059 34.1173C56.905 35.6628 56.7221 35.7452 55.2208 35.0857C54.8827 34.9371 54.4878 35.0158 54.2323 35.2826C53.1008 36.4645 52.8958 36.4623 51.7534 35.2674ZM60.271 39.6363C59.9565 39.6145 59.6549 39.7623 59.4795 40.024L57.9142 42.3609L55.3165 37.0173C57.0358 37.599 58.1748 36.9902 58.9155 35.3154C59.4926 35.3009 60.1269 35.2212 60.6622 34.8994L63.0727 39.8319L60.271 39.6363Z" fill="white"/>
<path d="M56.5233 30.4305L56.12 27.9167L57.9178 26.1215C58.4248 25.6152 58.1431 24.7426 57.4324 24.6314L54.9295 24.2402L53.7848 21.9705C53.4601 21.327 52.5393 21.3281 52.2153 21.9705L51.0706 24.2402L48.5677 24.6314C47.8569 24.7426 47.5755 25.6154 48.0824 26.1215L49.8801 27.9167L49.4768 30.4305C49.3628 31.1412 50.1076 31.68 50.7469 31.3511L53 30.1913L55.2532 31.3511C55.8932 31.6805 56.6372 31.1404 56.5233 30.4305ZM54.5123 28.9928C52.7752 28.0986 53.2257 28.0982 51.4877 28.9928C51.7985 27.056 51.9385 27.4881 50.549 26.1007C52.4839 25.7983 52.1195 26.0636 53 24.318C53.8801 26.0629 53.5128 25.7978 55.451 26.1007C54.0616 27.488 54.2015 27.0555 54.5123 28.9928Z" fill="white"/>
</g>
<path d="M10.0098 81V72.4688H12.418C13.1602 72.4688 13.8164 72.6328 14.3867 72.9609C14.957 73.2891 15.3965 73.7559 15.7051 74.3613C16.0176 74.9668 16.1758 75.6621 16.1797 76.4473V76.9922C16.1797 77.7969 16.0234 78.502 15.7109 79.1074C15.4023 79.7129 14.959 80.1777 14.3809 80.502C13.8066 80.8262 13.1367 80.9922 12.3711 81H10.0098ZM11.1348 73.3945V80.0801H12.3184C13.1855 80.0801 13.8594 79.8105 14.3398 79.2715C14.8242 78.7324 15.0664 77.9648 15.0664 76.9688V76.4707C15.0664 75.502 14.8379 74.75 14.3809 74.2148C13.9277 73.6758 13.2832 73.4023 12.4473 73.3945H11.1348ZM18.8926 81H17.8086V74.6602H18.8926V81ZM17.7207 72.9785C17.7207 72.8027 17.7734 72.6543 17.8789 72.5332C17.9883 72.4121 18.1484 72.3516 18.3594 72.3516C18.5703 72.3516 18.7305 72.4121 18.8398 72.5332C18.9492 72.6543 19.0039 72.8027 19.0039 72.9785C19.0039 73.1543 18.9492 73.3008 18.8398 73.418C18.7305 73.5352 18.5703 73.5938 18.3594 73.5938C18.1484 73.5938 17.9883 73.5352 17.8789 73.418C17.7734 73.3008 17.7207 73.1543 17.7207 72.9785ZM24.3242 79.3184C24.3242 79.0254 24.2129 78.7988 23.9902 78.6387C23.7715 78.4746 23.3867 78.334 22.8359 78.2168C22.2891 78.0996 21.8535 77.959 21.5293 77.7949C21.209 77.6309 20.9707 77.4355 20.8145 77.209C20.6621 76.9824 20.5859 76.7129 20.5859 76.4004C20.5859 75.8809 20.8047 75.4414 21.2422 75.082C21.6836 74.7227 22.2461 74.543 22.9297 74.543C23.6484 74.543 24.2305 74.7285 24.6758 75.0996C25.125 75.4707 25.3496 75.9453 25.3496 76.5234H24.2598C24.2598 76.2266 24.1328 75.9707 23.8789 75.7559C23.6289 75.541 23.3125 75.4336 22.9297 75.4336C22.5352 75.4336 22.2266 75.5195 22.0039 75.6914C21.7812 75.8633 21.6699 76.0879 21.6699 76.3652C21.6699 76.627 21.7734 76.8242 21.9805 76.957C22.1875 77.0898 22.5605 77.2168 23.0996 77.3379C23.6426 77.459 24.082 77.6035 24.418 77.7715C24.7539 77.9395 25.002 78.1426 25.1621 78.3809C25.3262 78.6152 25.4082 78.9023 25.4082 79.2422C25.4082 79.8086 25.1816 80.2637 24.7285 80.6074C24.2754 80.9473 23.6875 81.1172 22.9648 81.1172C22.457 81.1172 22.0078 81.0273 21.6172 80.8477C21.2266 80.668 20.9199 80.418 20.6973 80.0977C20.4785 79.7734 20.3691 79.4238 20.3691 79.0488H21.4531C21.4727 79.4121 21.6172 79.7012 21.8867 79.916C22.1602 80.127 22.5195 80.2324 22.9648 80.2324C23.375 80.2324 23.7031 80.1504 23.9492 79.9863C24.1992 79.8184 24.3242 79.5957 24.3242 79.3184ZM29.3633 80.2324C29.75 80.2324 30.0879 80.1152 30.377 79.8809C30.666 79.6465 30.8262 79.3535 30.8574 79.002H31.8828C31.8633 79.3652 31.7383 79.7109 31.5078 80.0391C31.2773 80.3672 30.9688 80.6289 30.582 80.8242C30.1992 81.0195 29.793 81.1172 29.3633 81.1172C28.5 81.1172 27.8125 80.8301 27.3008 80.2559C26.793 79.6777 26.5391 78.8887 26.5391 77.8887V77.707C26.5391 77.0898 26.6523 76.541 26.8789 76.0605C27.1055 75.5801 27.4297 75.207 27.8516 74.9414C28.2773 74.6758 28.7793 74.543 29.3574 74.543C30.0684 74.543 30.6582 74.7559 31.127 75.1816C31.5996 75.6074 31.8516 76.1602 31.8828 76.8398H30.8574C30.8262 76.4297 30.6699 76.0938 30.3887 75.832C30.1113 75.5664 29.7676 75.4336 29.3574 75.4336C28.8066 75.4336 28.3789 75.6328 28.0742 76.0312C27.7734 76.4258 27.623 76.998 27.623 77.748V77.9531C27.623 78.6836 27.7734 79.2461 28.0742 79.6406C28.375 80.0352 28.8047 80.2324 29.3633 80.2324ZM32.8145 77.7715C32.8145 77.1504 32.9355 76.5918 33.1777 76.0957C33.4238 75.5996 33.7637 75.2168 34.1973 74.9473C34.6348 74.6777 35.1328 74.543 35.6914 74.543C36.5547 74.543 37.252 74.8418 37.7832 75.4395C38.3184 76.0371 38.5859 76.832 38.5859 77.8242V77.9004C38.5859 78.5176 38.4668 79.0723 38.2285 79.5645C37.9941 80.0527 37.6562 80.4336 37.2148 80.707C36.7773 80.9805 36.2734 81.1172 35.7031 81.1172C34.8438 81.1172 34.1465 80.8184 33.6113 80.2207C33.0801 79.623 32.8145 78.832 32.8145 77.8477V77.7715ZM33.9043 77.9004C33.9043 78.6035 34.0664 79.168 34.3906 79.5938C34.7188 80.0195 35.1562 80.2324 35.7031 80.2324C36.2539 80.2324 36.6914 80.0176 37.0156 79.5879C37.3398 79.1543 37.502 78.5488 37.502 77.7715C37.502 77.0762 37.3359 76.5137 37.0039 76.084C36.6758 75.6504 36.2383 75.4336 35.6914 75.4336C35.1562 75.4336 34.7246 75.6465 34.3965 76.0723C34.0684 76.498 33.9043 77.1074 33.9043 77.9004ZM41.9434 79.5293L43.5137 74.6602H44.6211L42.3477 81H41.5215L39.2246 74.6602H40.332L41.9434 79.5293ZM48.2129 81.1172C47.3535 81.1172 46.6543 80.8359 46.1152 80.2734C45.5762 79.707 45.3066 78.9512 45.3066 78.0059V77.8066C45.3066 77.1777 45.4258 76.6172 45.6641 76.125C45.9062 75.6289 46.2422 75.2422 46.6719 74.9648C47.1055 74.6836 47.5742 74.543 48.0781 74.543C48.9023 74.543 49.543 74.8145 50 75.3574C50.457 75.9004 50.6855 76.6777 50.6855 77.6895V78.1406H46.3906C46.4062 78.7656 46.5879 79.2715 46.9355 79.6582C47.2871 80.041 47.7324 80.2324 48.2715 80.2324C48.6543 80.2324 48.9785 80.1543 49.2441 79.998C49.5098 79.8418 49.7422 79.6348 49.9414 79.377L50.6035 79.8926C50.0723 80.709 49.2754 81.1172 48.2129 81.1172ZM48.0781 75.4336C47.6406 75.4336 47.2734 75.5938 46.9766 75.9141C46.6797 76.2305 46.4961 76.6758 46.4258 77.25H49.6016V77.168C49.5703 76.6172 49.4219 76.1914 49.1562 75.8906C48.8906 75.5859 48.5312 75.4336 48.0781 75.4336ZM55.0098 75.6328C54.8457 75.6055 54.668 75.5918 54.4766 75.5918C53.7656 75.5918 53.2832 75.8945 53.0293 76.5V81H51.9453V74.6602H53L53.0176 75.3926C53.373 74.8262 53.877 74.543 54.5293 74.543C54.7402 74.543 54.9004 74.5703 55.0098 74.625V75.6328ZM60.0723 75.4277C60.5527 74.8379 61.1777 74.543 61.9473 74.543C63.2871 74.543 63.9629 75.2988 63.9746 76.8105V81H62.8906V76.8047C62.8867 76.3477 62.7812 76.0098 62.5742 75.791C62.3711 75.5723 62.0527 75.4629 61.6191 75.4629C61.2676 75.4629 60.959 75.5566 60.6934 75.7441C60.4277 75.9316 60.2207 76.1777 60.0723 76.4824V81H58.9883V72H60.0723V75.4277ZM65.3105 77.7715C65.3105 77.1504 65.4316 76.5918 65.6738 76.0957C65.9199 75.5996 66.2598 75.2168 66.6934 74.9473C67.1309 74.6777 67.6289 74.543 68.1875 74.543C69.0508 74.543 69.748 74.8418 70.2793 75.4395C70.8145 76.0371 71.082 76.832 71.082 77.8242V77.9004C71.082 78.5176 70.9629 79.0723 70.7246 79.5645C70.4902 80.0527 70.1523 80.4336 69.7109 80.707C69.2734 80.9805 68.7695 81.1172 68.1992 81.1172C67.3398 81.1172 66.6426 80.8184 66.1074 80.2207C65.5762 79.623 65.3105 78.832 65.3105 77.8477V77.7715ZM66.4004 77.9004C66.4004 78.6035 66.5625 79.168 66.8867 79.5938C67.2148 80.0195 67.6523 80.2324 68.1992 80.2324C68.75 80.2324 69.1875 80.0176 69.5117 79.5879C69.8359 79.1543 69.998 78.5488 69.998 77.7715C69.998 77.0762 69.832 76.5137 69.5 76.084C69.1719 75.6504 68.7344 75.4336 68.1875 75.4336C67.6523 75.4336 67.2207 75.6465 66.8926 76.0723C66.5645 76.498 66.4004 77.1074 66.4004 77.9004ZM76.3555 80.373C75.9336 80.8691 75.3145 81.1172 74.498 81.1172C73.8223 81.1172 73.3066 80.9219 72.9512 80.5312C72.5996 80.1367 72.4219 79.5547 72.418 78.7852V74.6602H73.502V78.7559C73.502 79.7168 73.8926 80.1973 74.6738 80.1973C75.502 80.1973 76.0527 79.8887 76.3262 79.2715V74.6602H77.4102V81H76.3789L76.3555 80.373ZM82.7539 79.3184C82.7539 79.0254 82.6426 78.7988 82.4199 78.6387C82.2012 78.4746 81.8164 78.334 81.2656 78.2168C80.7188 78.0996 80.2832 77.959 79.959 77.7949C79.6387 77.6309 79.4004 77.4355 79.2441 77.209C79.0918 76.9824 79.0156 76.7129 79.0156 76.4004C79.0156 75.8809 79.2344 75.4414 79.6719 75.082C80.1133 74.7227 80.6758 74.543 81.3594 74.543C82.0781 74.543 82.6602 74.7285 83.1055 75.0996C83.5547 75.4707 83.7793 75.9453 83.7793 76.5234H82.6895C82.6895 76.2266 82.5625 75.9707 82.3086 75.7559C82.0586 75.541 81.7422 75.4336 81.3594 75.4336C80.9648 75.4336 80.6562 75.5195 80.4336 75.6914C80.2109 75.8633 80.0996 76.0879 80.0996 76.3652C80.0996 76.627 80.2031 76.8242 80.4102 76.957C80.6172 77.0898 80.9902 77.2168 81.5293 77.3379C82.0723 77.459 82.5117 77.6035 82.8477 77.7715C83.1836 77.9395 83.4316 78.1426 83.5918 78.3809C83.7559 78.6152 83.8379 78.9023 83.8379 79.2422C83.8379 79.8086 83.6113 80.2637 83.1582 80.6074C82.7051 80.9473 82.1172 81.1172 81.3945 81.1172C80.8867 81.1172 80.4375 81.0273 80.0469 80.8477C79.6562 80.668 79.3496 80.418 79.127 80.0977C78.9082 79.7734 78.7988 79.4238 78.7988 79.0488H79.8828C79.9023 79.4121 80.0469 79.7012 80.3164 79.916C80.5898 80.127 80.9492 80.2324 81.3945 80.2324C81.8047 80.2324 82.1328 80.1504 82.3789 79.9863C82.6289 79.8184 82.7539 79.5957 82.7539 79.3184ZM87.8809 81.1172C87.0215 81.1172 86.3223 80.8359 85.7832 80.2734C85.2441 79.707 84.9746 78.9512 84.9746 78.0059V77.8066C84.9746 77.1777 85.0938 76.6172 85.332 76.125C85.5742 75.6289 85.9102 75.2422 86.3398 74.9648C86.7734 74.6836 87.2422 74.543 87.7461 74.543C88.5703 74.543 89.2109 74.8145 89.668 75.3574C90.125 75.9004 90.3535 76.6777 90.3535 77.6895V78.1406H86.0586C86.0742 78.7656 86.2559 79.2715 86.6035 79.6582C86.9551 80.041 87.4004 80.2324 87.9395 80.2324C88.3223 80.2324 88.6465 80.1543 88.9121 79.998C89.1777 79.8418 89.4102 79.6348 89.6094 79.377L90.2715 79.8926C89.7402 80.709 88.9434 81.1172 87.8809 81.1172ZM87.7461 75.4336C87.3086 75.4336 86.9414 75.5938 86.6445 75.9141C86.3477 76.2305 86.1641 76.6758 86.0938 77.25H89.2695V77.168C89.2383 76.6172 89.0898 76.1914 88.8242 75.8906C88.5586 75.5859 88.1992 75.4336 87.7461 75.4336ZM95.3047 79.3184C95.3047 79.0254 95.1934 78.7988 94.9707 78.6387C94.752 78.4746 94.3672 78.334 93.8164 78.2168C93.2695 78.0996 92.834 77.959 92.5098 77.7949C92.1895 77.6309 91.9512 77.4355 91.7949 77.209C91.6426 76.9824 91.5664 76.7129 91.5664 76.4004C91.5664 75.8809 91.7852 75.4414 92.2227 75.082C92.6641 74.7227 93.2266 74.543 93.9102 74.543C94.6289 74.543 95.2109 74.7285 95.6562 75.0996C96.1055 75.4707 96.3301 75.9453 96.3301 76.5234H95.2402C95.2402 76.2266 95.1133 75.9707 94.8594 75.7559C94.6094 75.541 94.293 75.4336 93.9102 75.4336C93.5156 75.4336 93.207 75.5195 92.9844 75.6914C92.7617 75.8633 92.6504 76.0879 92.6504 76.3652C92.6504 76.627 92.7539 76.8242 92.9609 76.957C93.168 77.0898 93.541 77.2168 94.0801 77.3379C94.623 77.459 95.0625 77.6035 95.3984 77.7715C95.7344 77.9395 95.9824 78.1426 96.1426 78.3809C96.3066 78.6152 96.3887 78.9023 96.3887 79.2422C96.3887 79.8086 96.1621 80.2637 95.709 80.6074C95.2559 80.9473 94.668 81.1172 93.9453 81.1172C93.4375 81.1172 92.9883 81.0273 92.5977 80.8477C92.207 80.668 91.9004 80.418 91.6777 80.0977C91.459 79.7734 91.3496 79.4238 91.3496 79.0488H92.4336C92.4531 79.4121 92.5977 79.7012 92.8672 79.916C93.1406 80.127 93.5 80.2324 93.9453 80.2324C94.3555 80.2324 94.6836 80.1504 94.9297 79.9863C95.1797 79.8184 95.3047 79.5957 95.3047 79.3184ZM11.4453 87.125V88.6602H12.6289V89.498H11.4453V93.4297C11.4453 93.6836 11.498 93.875 11.6035 94.0039C11.709 94.1289 11.8887 94.1914 12.1426 94.1914C12.2676 94.1914 12.4395 94.168 12.6582 94.1211V95C12.373 95.0781 12.0957 95.1172 11.8262 95.1172C11.3418 95.1172 10.9766 94.9707 10.7305 94.6777C10.4844 94.3848 10.3613 93.9688 10.3613 93.4297V89.498H9.20703V88.6602H10.3613V87.125H11.4453ZM14.9844 89.4277C15.4648 88.8379 16.0898 88.543 16.8594 88.543C18.1992 88.543 18.875 89.2988 18.8867 90.8105V95H17.8027V90.8047C17.7988 90.3477 17.6934 90.0098 17.4863 89.791C17.2832 89.5723 16.9648 89.4629 16.5312 89.4629C16.1797 89.4629 15.8711 89.5566 15.6055 89.7441C15.3398 89.9316 15.1328 90.1777 14.9844 90.4824V95H13.9004V86H14.9844V89.4277ZM24.4238 95C24.3613 94.875 24.3105 94.6523 24.2715 94.332C23.7676 94.8555 23.166 95.1172 22.4668 95.1172C21.8418 95.1172 21.3281 94.9414 20.9258 94.5898C20.5273 94.2344 20.3281 93.7852 20.3281 93.2422C20.3281 92.582 20.5781 92.0703 21.0781 91.707C21.582 91.3398 22.2891 91.1562 23.1992 91.1562H24.2539V90.6582C24.2539 90.2793 24.1406 89.9785 23.9141 89.7559C23.6875 89.5293 23.3535 89.416 22.9121 89.416C22.5254 89.416 22.2012 89.5137 21.9395 89.709C21.6777 89.9043 21.5469 90.1406 21.5469 90.418H20.457C20.457 90.1016 20.5684 89.7969 20.791 89.5039C21.0176 89.207 21.3223 88.9727 21.7051 88.8008C22.0918 88.6289 22.5156 88.543 22.9766 88.543C23.707 88.543 24.2793 88.7266 24.6934 89.0938C25.1074 89.457 25.3223 89.959 25.3379 90.5996V93.5176C25.3379 94.0996 25.4121 94.5625 25.5605 94.9062V95H24.4238ZM22.625 94.1738C22.9648 94.1738 23.2871 94.0859 23.5918 93.9102C23.8965 93.7344 24.1172 93.5059 24.2539 93.2246V91.9238H23.4043C22.0762 91.9238 21.4121 92.3125 21.4121 93.0898C21.4121 93.4297 21.5254 93.6953 21.752 93.8867C21.9785 94.0781 22.2695 94.1738 22.625 94.1738ZM28.5078 87.125V88.6602H29.6914V89.498H28.5078V93.4297C28.5078 93.6836 28.5605 93.875 28.666 94.0039C28.7715 94.1289 28.9512 94.1914 29.2051 94.1914C29.3301 94.1914 29.502 94.168 29.7207 94.1211V95C29.4355 95.0781 29.1582 95.1172 28.8887 95.1172C28.4043 95.1172 28.0391 94.9707 27.793 94.6777C27.5469 94.3848 27.4238 93.9688 27.4238 93.4297V89.498H26.2695V88.6602H27.4238V87.125H28.5078ZM39.5527 93.5059L40.7715 88.6602H41.8555L40.0098 95H39.1309L37.5898 90.1953L36.0898 95H35.2109L33.3711 88.6602H34.4492L35.6973 93.4062L37.1738 88.6602H38.0469L39.5527 93.5059ZM44.1406 95H43.0566V88.6602H44.1406V95ZM42.9688 86.9785C42.9688 86.8027 43.0215 86.6543 43.127 86.5332C43.2363 86.4121 43.3965 86.3516 43.6074 86.3516C43.8184 86.3516 43.9785 86.4121 44.0879 86.5332C44.1973 86.6543 44.252 86.8027 44.252 86.9785C44.252 87.1543 44.1973 87.3008 44.0879 87.418C43.9785 87.5352 43.8184 87.5938 43.6074 87.5938C43.3965 87.5938 43.2363 87.5352 43.127 87.418C43.0215 87.3008 42.9688 87.1543 42.9688 86.9785ZM47.0586 95H45.9746V86H47.0586V95ZM49.9766 95H48.8926V86H49.9766V95ZM55.8711 95H54.7871V88.6602H55.8711V95ZM54.6992 86.9785C54.6992 86.8027 54.752 86.6543 54.8574 86.5332C54.9668 86.4121 55.127 86.3516 55.3379 86.3516C55.5488 86.3516 55.709 86.4121 55.8184 86.5332C55.9277 86.6543 55.9824 86.8027 55.9824 86.9785C55.9824 87.1543 55.9277 87.3008 55.8184 87.418C55.709 87.5352 55.5488 87.5938 55.3379 87.5938C55.127 87.5938 54.9668 87.5352 54.8574 87.418C54.752 87.3008 54.6992 87.1543 54.6992 86.9785ZM58.6309 88.6602L58.6602 89.3633C59.125 88.8164 59.752 88.543 60.541 88.543C61.4277 88.543 62.0312 88.8828 62.3516 89.5625C62.5625 89.2578 62.8359 89.0117 63.1719 88.8242C63.5117 88.6367 63.9121 88.543 64.373 88.543C65.7637 88.543 66.4707 89.2793 66.4941 90.752V95H65.4102V90.8164C65.4102 90.3633 65.3066 90.0254 65.0996 89.8027C64.8926 89.5762 64.5449 89.4629 64.0566 89.4629C63.6543 89.4629 63.3203 89.584 63.0547 89.8262C62.7891 90.0645 62.6348 90.3867 62.5918 90.793V95H61.502V90.8457C61.502 89.9238 61.0508 89.4629 60.1484 89.4629C59.4375 89.4629 58.9512 89.7656 58.6895 90.3711V95H57.6055V88.6602H58.6309ZM73.4902 91.9004C73.4902 92.8652 73.2695 93.6426 72.8281 94.2324C72.3867 94.8223 71.7891 95.1172 71.0352 95.1172C70.2656 95.1172 69.6602 94.873 69.2188 94.3848V97.4375H68.1348V88.6602H69.125L69.1777 89.3633C69.6191 88.8164 70.2324 88.543 71.0176 88.543C71.7793 88.543 72.3809 88.8301 72.8223 89.4043C73.2676 89.9785 73.4902 90.7773 73.4902 91.8008V91.9004ZM72.4062 91.7773C72.4062 91.0625 72.2539 90.498 71.9492 90.084C71.6445 89.6699 71.2266 89.4629 70.6953 89.4629C70.0391 89.4629 69.5469 89.7539 69.2188 90.3359V93.3652C69.543 93.9434 70.0391 94.2324 70.707 94.2324C71.2266 94.2324 71.6387 94.0273 71.9434 93.6172C72.252 93.2031 72.4062 92.5898 72.4062 91.7773ZM77.9375 89.6328C77.7734 89.6055 77.5957 89.5918 77.4043 89.5918C76.6934 89.5918 76.2109 89.8945 75.957 90.5V95H74.873V88.6602H75.9277L75.9453 89.3926C76.3008 88.8262 76.8047 88.543 77.457 88.543C77.668 88.543 77.8281 88.5703 77.9375 88.625V89.6328ZM78.5352 91.7715C78.5352 91.1504 78.6562 90.5918 78.8984 90.0957C79.1445 89.5996 79.4844 89.2168 79.918 88.9473C80.3555 88.6777 80.8535 88.543 81.4121 88.543C82.2754 88.543 82.9727 88.8418 83.5039 89.4395C84.0391 90.0371 84.3066 90.832 84.3066 91.8242V91.9004C84.3066 92.5176 84.1875 93.0723 83.9492 93.5645C83.7148 94.0527 83.377 94.4336 82.9355 94.707C82.498 94.9805 81.9941 95.1172 81.4238 95.1172C80.5645 95.1172 79.8672 94.8184 79.332 94.2207C78.8008 93.623 78.5352 92.832 78.5352 91.8477V91.7715ZM79.625 91.9004C79.625 92.6035 79.7871 93.168 80.1113 93.5938C80.4395 94.0195 80.877 94.2324 81.4238 94.2324C81.9746 94.2324 82.4121 94.0176 82.7363 93.5879C83.0605 93.1543 83.2227 92.5488 83.2227 91.7715C83.2227 91.0762 83.0566 90.5137 82.7246 90.084C82.3965 89.6504 81.959 89.4336 81.4121 89.4336C80.877 89.4336 80.4453 89.6465 80.1172 90.0723C79.7891 90.498 79.625 91.1074 79.625 91.9004ZM87.6641 93.5293L89.2344 88.6602H90.3418L88.0684 95H87.2422L84.9453 88.6602H86.0527L87.6641 93.5293ZM93.9336 95.1172C93.0742 95.1172 92.375 94.8359 91.8359 94.2734C91.2969 93.707 91.0273 92.9512 91.0273 92.0059V91.8066C91.0273 91.1777 91.1465 90.6172 91.3848 90.125C91.627 89.6289 91.9629 89.2422 92.3926 88.9648C92.8262 88.6836 93.2949 88.543 93.7988 88.543C94.623 88.543 95.2637 88.8145 95.7207 89.3574C96.1777 89.9004 96.4062 90.6777 96.4062 91.6895V92.1406H92.1113C92.127 92.7656 92.3086 93.2715 92.6562 93.6582C93.0078 94.041 93.4531 94.2324 93.9922 94.2324C94.375 94.2324 94.6992 94.1543 94.9648 93.998C95.2305 93.8418 95.4629 93.6348 95.6621 93.377L96.3242 93.8926C95.793 94.709 94.9961 95.1172 93.9336 95.1172ZM93.7988 89.4336C93.3613 89.4336 92.9941 89.5938 92.6973 89.9141C92.4004 90.2305 92.2168 90.6758 92.1465 91.25H95.3223V91.168C95.291 90.6172 95.1426 90.1914 94.877 89.8906C94.6113 89.5859 94.252 89.4336 93.7988 89.4336ZM14.2695 107.412L15.7461 102.66H16.9062L14.3574 109.979C13.9629 111.033 13.3359 111.561 12.4766 111.561L12.2715 111.543L11.8672 111.467V110.588L12.1602 110.611C12.5273 110.611 12.8125 110.537 13.0156 110.389C13.2227 110.24 13.3926 109.969 13.5254 109.574L13.7656 108.93L11.5039 102.66H12.6875L14.2695 107.412ZM17.498 105.771C17.498 105.15 17.6191 104.592 17.8613 104.096C18.1074 103.6 18.4473 103.217 18.8809 102.947C19.3184 102.678 19.8164 102.543 20.375 102.543C21.2383 102.543 21.9355 102.842 22.4668 103.439C23.002 104.037 23.2695 104.832 23.2695 105.824V105.9C23.2695 106.518 23.1504 107.072 22.9121 107.564C22.6777 108.053 22.3398 108.434 21.8984 108.707C21.4609 108.98 20.957 109.117 20.3867 109.117C19.5273 109.117 18.8301 108.818 18.2949 108.221C17.7637 107.623 17.498 106.832 17.498 105.848V105.771ZM18.5879 105.9C18.5879 106.604 18.75 107.168 19.0742 107.594C19.4023 108.02 19.8398 108.232 20.3867 108.232C20.9375 108.232 21.375 108.018 21.6992 107.588C22.0234 107.154 22.1855 106.549 22.1855 105.771C22.1855 105.076 22.0195 104.514 21.6875 104.084C21.3594 103.65 20.9219 103.434 20.375 103.434C19.8398 103.434 19.4082 103.646 19.0801 104.072C18.752 104.498 18.5879 105.107 18.5879 105.9ZM28.543 108.373C28.1211 108.869 27.502 109.117 26.6855 109.117C26.0098 109.117 25.4941 108.922 25.1387 108.531C24.7871 108.137 24.6094 107.555 24.6055 106.785V102.66H25.6895V106.756C25.6895 107.717 26.0801 108.197 26.8613 108.197C27.6895 108.197 28.2402 107.889 28.5137 107.271V102.66H29.5977V109H28.5664L28.543 108.373ZM34.3145 103.633C34.1504 103.605 33.9727 103.592 33.7812 103.592C33.0703 103.592 32.5879 103.895 32.334 104.5V109H31.25V102.66H32.3047L32.3223 103.393C32.6777 102.826 33.1816 102.543 33.834 102.543C34.0449 102.543 34.2051 102.57 34.3145 102.625V103.633ZM39.4707 109H38.3867V100H39.4707V109ZM42.3887 109H41.3047V102.66H42.3887V109ZM41.2168 100.979C41.2168 100.803 41.2695 100.654 41.375 100.533C41.4844 100.412 41.6445 100.352 41.8555 100.352C42.0664 100.352 42.2266 100.412 42.3359 100.533C42.4453 100.654 42.5 100.803 42.5 100.979C42.5 101.154 42.4453 101.301 42.3359 101.418C42.2266 101.535 42.0664 101.594 41.8555 101.594C41.6445 101.594 41.4844 101.535 41.375 101.418C41.2695 101.301 41.2168 101.154 41.2168 100.979ZM44.6621 109V103.498H43.6602V102.66H44.6621V102.01C44.6621 101.33 44.8438 100.805 45.207 100.434C45.5703 100.062 46.084 99.877 46.748 99.877C46.998 99.877 47.2461 99.9102 47.4922 99.9766L47.4336 100.855C47.25 100.82 47.0547 100.803 46.8477 100.803C46.4961 100.803 46.2246 100.906 46.0332 101.113C45.8418 101.316 45.7461 101.609 45.7461 101.992V102.66H47.0996V103.498H45.7461V109H44.6621ZM50.791 109.117C49.9316 109.117 49.2324 108.836 48.6934 108.273C48.1543 107.707 47.8848 106.951 47.8848 106.006V105.807C47.8848 105.178 48.0039 104.617 48.2422 104.125C48.4844 103.629 48.8203 103.242 49.25 102.965C49.6836 102.684 50.1523 102.543 50.6562 102.543C51.4805 102.543 52.1211 102.814 52.5781 103.357C53.0352 103.9 53.2637 104.678 53.2637 105.689V106.141H48.9688C48.9844 106.766 49.166 107.271 49.5137 107.658C49.8652 108.041 50.3105 108.232 50.8496 108.232C51.2324 108.232 51.5566 108.154 51.8223 107.998C52.0879 107.842 52.3203 107.635 52.5195 107.377L53.1816 107.893C52.6504 108.709 51.8535 109.117 50.791 109.117ZM50.6562 103.434C50.2188 103.434 49.8516 103.594 49.5547 103.914C49.2578 104.23 49.0742 104.676 49.0039 105.25H52.1797V105.168C52.1484 104.617 52 104.191 51.7344 103.891C51.4688 103.586 51.1094 103.434 50.6562 103.434ZM57.2363 105.777C57.2363 104.781 57.4648 103.994 57.9219 103.416C58.3789 102.834 58.9922 102.543 59.7617 102.543C60.5117 102.543 61.1035 102.795 61.5371 103.299L61.584 102.66H62.5801V111.438H61.4961V108.414C61.0586 108.883 60.4766 109.117 59.75 109.117C58.9844 109.117 58.373 108.82 57.916 108.227C57.4629 107.629 57.2363 106.838 57.2363 105.854V105.777ZM58.3203 105.9C58.3203 106.627 58.4727 107.197 58.7773 107.611C59.0859 108.025 59.5 108.232 60.0195 108.232C60.6641 108.232 61.1562 107.947 61.4961 107.377V104.271C61.1523 103.713 60.6641 103.434 60.0312 103.434C59.5078 103.434 59.0918 103.643 58.7832 104.061C58.4746 104.475 58.3203 105.088 58.3203 105.9ZM68.2344 108.373C67.8125 108.869 67.1934 109.117 66.377 109.117C65.7012 109.117 65.1855 108.922 64.8301 108.531C64.4785 108.137 64.3008 107.555 64.2969 106.785V102.66H65.3809V106.756C65.3809 107.717 65.7715 108.197 66.5527 108.197C67.3809 108.197 67.9316 107.889 68.2051 107.271V102.66H69.2891V109H68.2578L68.2344 108.373ZM74.8555 109C74.793 108.875 74.7422 108.652 74.7031 108.332C74.1992 108.855 73.5977 109.117 72.8984 109.117C72.2734 109.117 71.7598 108.941 71.3574 108.59C70.959 108.234 70.7598 107.785 70.7598 107.242C70.7598 106.582 71.0098 106.07 71.5098 105.707C72.0137 105.34 72.7207 105.156 73.6309 105.156H74.6855V104.658C74.6855 104.279 74.5723 103.979 74.3457 103.756C74.1191 103.529 73.7852 103.416 73.3438 103.416C72.957 103.416 72.6328 103.514 72.3711 103.709C72.1094 103.904 71.9785 104.141 71.9785 104.418H70.8887C70.8887 104.102 71 103.797 71.2227 103.504C71.4492 103.207 71.7539 102.973 72.1367 102.801C72.5234 102.629 72.9473 102.543 73.4082 102.543C74.1387 102.543 74.7109 102.727 75.125 103.094C75.5391 103.457 75.7539 103.959 75.7695 104.6V107.518C75.7695 108.1 75.8438 108.562 75.9922 108.906V109H74.8555ZM73.0566 108.174C73.3965 108.174 73.7188 108.086 74.0234 107.91C74.3281 107.734 74.5488 107.506 74.6855 107.225V105.924H73.8359C72.5078 105.924 71.8438 106.312 71.8438 107.09C71.8438 107.43 71.957 107.695 72.1836 107.887C72.4102 108.078 72.7012 108.174 73.0566 108.174ZM78.6465 109H77.5625V100H78.6465V109ZM81.5645 109H80.4805V102.66H81.5645V109ZM80.3926 100.979C80.3926 100.803 80.4453 100.654 80.5508 100.533C80.6602 100.412 80.8203 100.352 81.0312 100.352C81.2422 100.352 81.4023 100.412 81.5117 100.533C81.6211 100.654 81.6758 100.803 81.6758 100.979C81.6758 101.154 81.6211 101.301 81.5117 101.418C81.4023 101.535 81.2422 101.594 81.0312 101.594C80.8203 101.594 80.6602 101.535 80.5508 101.418C80.4453 101.301 80.3926 101.154 80.3926 100.979ZM84.7754 101.125V102.66H85.959V103.498H84.7754V107.43C84.7754 107.684 84.8281 107.875 84.9336 108.004C85.0391 108.129 85.2188 108.191 85.4727 108.191C85.5977 108.191 85.7695 108.168 85.9883 108.121V109C85.7031 109.078 85.4258 109.117 85.1562 109.117C84.6719 109.117 84.3066 108.971 84.0605 108.678C83.8145 108.385 83.6914 107.969 83.6914 107.43V103.498H82.5371V102.66H83.6914V101.125H84.7754ZM89.3047 107.412L90.7812 102.66H91.9414L89.3926 109.979C88.998 111.033 88.3711 111.561 87.5117 111.561L87.3066 111.543L86.9023 111.467V110.588L87.1953 110.611C87.5625 110.611 87.8477 110.537 88.0508 110.389C88.2578 110.24 88.4277 109.969 88.5605 109.574L88.8008 108.93L86.5391 102.66H87.7227L89.3047 107.412ZM92.3047 108.432C92.3047 108.244 92.3594 108.088 92.4688 107.963C92.582 107.838 92.75 107.775 92.9727 107.775C93.1953 107.775 93.3633 107.838 93.4766 107.963C93.5938 108.088 93.6523 108.244 93.6523 108.432C93.6523 108.611 93.5938 108.762 93.4766 108.883C93.3633 109.004 93.1953 109.064 92.9727 109.064C92.75 109.064 92.582 109.004 92.4688 108.883C92.3594 108.762 92.3047 108.611 92.3047 108.432Z" fill="black"/>
<defs>
<clipPath id="clip0_5_796">
<rect width="30" height="30" fill="white" transform="translate(38 15)"/>
</clipPath>
</defs>
</svg>
