<svg width="106" height="98" viewBox="0 0 106 98" fill="none" xmlns="http://www.w3.org/2000/svg">
<circle cx="53" cy="30" r="30" fill="#9FCBFF"/>
<g clip-path="url(#clip0_5_786)">
<path d="M43.4877 28.8779C43.3535 28.7437 43.1521 28.703 42.9768 28.7762C42.8015 28.8486 42.6875 29.0198 42.6875 29.2093V39.8436C42.6875 40.1027 42.8972 40.3124 43.1562 40.3124H53.7905C53.9801 40.3124 54.1513 40.1984 54.2236 40.0231C54.2964 39.8477 54.2561 39.6463 54.122 39.5122L43.4877 28.8779ZM43.625 30.3409L46.4375 33.1534V39.3749H43.625V30.3409ZM47.375 39.3749V34.0909L52.659 39.3749H47.375Z" fill="white"/>
<path d="M63.6439 16.0748C63.556 15.9869 63.437 15.9375 63.3125 15.9375H46.9062C46.6472 15.9375 46.4375 16.1472 46.4375 16.4062V26.5247L39.7377 19.8248C39.6035 19.6907 39.4021 19.6504 39.2268 19.7232C39.0515 19.7955 38.9375 19.9667 38.9375 20.1562V43.5938C38.9375 43.8528 39.1472 44.0625 39.4062 44.0625H62.8438C63.0333 44.0625 63.2045 43.9485 63.2768 43.7732C63.3496 43.5979 63.3093 43.3965 63.1752 43.2623L60.2253 40.3125H61.9062H66.5938C66.8528 40.3125 67.0625 40.1028 67.0625 39.8438V23.4375V19.6875C67.0625 19.563 67.0131 19.444 66.9252 19.3561L63.6439 16.0748ZM39.875 43.125V21.2878L42.0247 23.4375L41.4186 24.0436L42.0814 24.7064L42.6875 24.1003L43.4309 24.8438L42.8248 25.4498L43.4877 26.1127L44.0938 25.5066L44.8372 26.25L44.2311 26.8561L44.8939 27.5189L45.5 26.9128L46.2434 27.6562L45.6373 28.2623L46.3002 28.9252L46.9062 28.3191L47.6497 29.0625L47.0436 29.6686L47.7064 30.3314L48.3125 29.7253L49.0559 30.4688L48.4498 31.0748L49.1127 31.7377L49.7188 31.1316L50.4622 31.875L49.8561 32.4811L50.5189 33.1439L51.125 32.5378L51.8684 33.2812L51.2623 33.8873L51.9252 34.5502L52.5312 33.9441L53.2747 34.6875L52.6686 35.2936L53.3314 35.9564L53.9375 35.3503L54.6809 36.0938L54.0748 36.6998L54.7377 37.3627L55.3438 36.7566L56.0872 37.5L55.4811 38.1061L56.1439 38.7689L56.75 38.1628L57.4934 38.9062L56.8873 39.5123L57.5502 40.1752L58.1562 39.5691L58.8997 40.3125L58.2936 40.9186L58.9564 41.5814L59.5625 40.9753L61.7122 43.125H39.875ZM49.7188 22.0312H51.5938V31.6809L49.7188 29.8059V22.0312ZM50.0085 21.0938L50.6562 19.7983L51.304 21.0938H50.0085ZM55.8203 30.5219L56.6191 28.125H57.8184L58.6172 30.5219L57.8725 37.9597L56.4171 36.5042L55.8203 30.5219ZM57.6875 25.3125V23.197L59.0127 25.3175L57.8908 27.1875H56.5467L55.4248 25.3175L56.75 23.197V25.3125H57.6875ZM58.7291 38.8162L59.5602 30.5154C59.5666 30.4495 59.5593 30.3831 59.5382 30.3204L58.669 27.7128L59.9644 25.5537C60.055 25.4027 60.0532 25.2136 59.9598 25.0639L57.6161 21.3139C57.4449 21.0402 56.9926 21.0402 56.8214 21.3139L54.4777 25.0639C54.3843 25.2136 54.3824 25.4027 54.4731 25.5537L55.7685 27.7128L54.8993 30.3204C54.8782 30.3831 54.8709 30.4495 54.8773 30.5154L55.3704 35.4576L52.5312 32.6184V21.5625C52.5312 21.4897 52.5143 21.4178 52.4818 21.3528L51.0756 18.5403C50.9163 18.2227 50.3962 18.2227 50.2369 18.5403L48.8307 21.3528C48.7982 21.4178 48.7812 21.4897 48.7812 21.5625V28.8684L47.375 27.4622V16.875H63.1184L65.4622 19.2188H63.7812V18.2812H62.8438V19.6875C62.8438 19.9466 63.0534 20.1562 63.3125 20.1562H66.125V22.9688H61.9062C61.6472 22.9688 61.4375 23.1784 61.4375 23.4375V39.375H59.2878L58.7291 38.8162ZM62.375 39.375V23.9062H66.125V25.3125H65.1875V26.25H66.125V27.6562H65.1875V28.5938H66.125V30H65.1875V30.9375H66.125V32.3438H65.1875V33.2812H66.125V34.6875H65.1875V35.625H66.125V37.0312H65.1875V37.9688H66.125V39.375H62.375Z" fill="white"/>
<path d="M40.8125 41.25H41.75V42.1875H40.8125V41.25Z" fill="white"/>
<path d="M42.6875 41.25H43.625V42.1875H42.6875V41.25Z" fill="white"/>
<path d="M44.5625 41.25H45.5V42.1875H44.5625V41.25Z" fill="white"/>
</g>
<path d="M9.89844 81V72.4688H12.6875C13.6133 72.4688 14.3086 72.6602 14.7734 73.043C15.2422 73.4258 15.4766 73.9922 15.4766 74.7422C15.4766 75.1406 15.3633 75.4941 15.1367 75.8027C14.9102 76.1074 14.6016 76.3438 14.2109 76.5117C14.6719 76.6406 15.0352 76.8867 15.3008 77.25C15.5703 77.6094 15.7051 78.0391 15.7051 78.5391C15.7051 79.3047 15.457 79.9062 14.9609 80.3438C14.4648 80.7812 13.7637 81 12.8574 81H9.89844ZM11.0234 77.0098V80.0801H12.8809C13.4043 80.0801 13.8164 79.9453 14.1172 79.6758C14.4219 79.4023 14.5742 79.0273 14.5742 78.5508C14.5742 77.5234 14.0156 77.0098 12.8984 77.0098H11.0234ZM11.0234 76.1074H12.7227C13.2148 76.1074 13.6074 75.9844 13.9004 75.7383C14.1973 75.4922 14.3457 75.1582 14.3457 74.7363C14.3457 74.2676 14.209 73.9277 13.9355 73.7168C13.6621 73.502 13.2461 73.3945 12.6875 73.3945H11.0234V76.1074ZM19.8359 81.1172C18.9766 81.1172 18.2773 80.8359 17.7383 80.2734C17.1992 79.707 16.9297 78.9512 16.9297 78.0059V77.8066C16.9297 77.1777 17.0488 76.6172 17.2871 76.125C17.5293 75.6289 17.8652 75.2422 18.2949 74.9648C18.7285 74.6836 19.1973 74.543 19.7012 74.543C20.5254 74.543 21.166 74.8145 21.623 75.3574C22.0801 75.9004 22.3086 76.6777 22.3086 77.6895V78.1406H18.0137C18.0293 78.7656 18.2109 79.2715 18.5586 79.6582C18.9102 80.041 19.3555 80.2324 19.8945 80.2324C20.2773 80.2324 20.6016 80.1543 20.8672 79.998C21.1328 79.8418 21.3652 79.6348 21.5645 79.377L22.2266 79.8926C21.6953 80.709 20.8984 81.1172 19.8359 81.1172ZM19.7012 75.4336C19.2637 75.4336 18.8965 75.5938 18.5996 75.9141C18.3027 76.2305 18.1191 76.6758 18.0488 77.25H21.2246V77.168C21.1934 76.6172 21.0449 76.1914 20.7793 75.8906C20.5137 75.5859 20.1543 75.4336 19.7012 75.4336ZM30.459 81C30.3965 80.875 30.3457 80.6523 30.3066 80.332C29.8027 80.8555 29.2012 81.1172 28.502 81.1172C27.877 81.1172 27.3633 80.9414 26.9609 80.5898C26.5625 80.2344 26.3633 79.7852 26.3633 79.2422C26.3633 78.582 26.6133 78.0703 27.1133 77.707C27.6172 77.3398 28.3242 77.1562 29.2344 77.1562H30.2891V76.6582C30.2891 76.2793 30.1758 75.9785 29.9492 75.7559C29.7227 75.5293 29.3887 75.416 28.9473 75.416C28.5605 75.416 28.2363 75.5137 27.9746 75.709C27.7129 75.9043 27.582 76.1406 27.582 76.418H26.4922C26.4922 76.1016 26.6035 75.7969 26.8262 75.5039C27.0527 75.207 27.3574 74.9727 27.7402 74.8008C28.127 74.6289 28.5508 74.543 29.0117 74.543C29.7422 74.543 30.3145 74.7266 30.7285 75.0938C31.1426 75.457 31.3574 75.959 31.373 76.5996V79.5176C31.373 80.0996 31.4473 80.5625 31.5957 80.9062V81H30.459ZM28.6602 80.1738C29 80.1738 29.3223 80.0859 29.627 79.9102C29.9316 79.7344 30.1523 79.5059 30.2891 79.2246V77.9238H29.4395C28.1113 77.9238 27.4473 78.3125 27.4473 79.0898C27.4473 79.4297 27.5605 79.6953 27.7871 79.8867C28.0137 80.0781 28.3047 80.1738 28.6602 80.1738ZM38.6855 79.5059L39.9043 74.6602H40.9883L39.1426 81H38.2637L36.7227 76.1953L35.2227 81H34.3438L32.5039 74.6602H33.582L34.8301 79.4062L36.3066 74.6602H37.1797L38.6855 79.5059ZM46.0098 81C45.9473 80.875 45.8965 80.6523 45.8574 80.332C45.3535 80.8555 44.752 81.1172 44.0527 81.1172C43.4277 81.1172 42.9141 80.9414 42.5117 80.5898C42.1133 80.2344 41.9141 79.7852 41.9141 79.2422C41.9141 78.582 42.1641 78.0703 42.6641 77.707C43.168 77.3398 43.875 77.1562 44.7852 77.1562H45.8398V76.6582C45.8398 76.2793 45.7266 75.9785 45.5 75.7559C45.2734 75.5293 44.9395 75.416 44.498 75.416C44.1113 75.416 43.7871 75.5137 43.5254 75.709C43.2637 75.9043 43.1328 76.1406 43.1328 76.418H42.043C42.043 76.1016 42.1543 75.7969 42.377 75.5039C42.6035 75.207 42.9082 74.9727 43.291 74.8008C43.6777 74.6289 44.1016 74.543 44.5625 74.543C45.293 74.543 45.8652 74.7266 46.2793 75.0938C46.6934 75.457 46.9082 75.959 46.9238 76.5996V79.5176C46.9238 80.0996 46.998 80.5625 47.1465 80.9062V81H46.0098ZM44.2109 80.1738C44.5508 80.1738 44.873 80.0859 45.1777 79.9102C45.4824 79.7344 45.7031 79.5059 45.8398 79.2246V77.9238H44.9902C43.6621 77.9238 42.998 78.3125 42.998 79.0898C42.998 79.4297 43.1113 79.6953 43.3379 79.8867C43.5645 80.0781 43.8555 80.1738 44.2109 80.1738ZM51.6875 75.6328C51.5234 75.6055 51.3457 75.5918 51.1543 75.5918C50.4434 75.5918 49.9609 75.8945 49.707 76.5V81H48.623V74.6602H49.6777L49.6953 75.3926C50.0508 74.8262 50.5547 74.543 51.207 74.543C51.418 74.543 51.5781 74.5703 51.6875 74.625V75.6328ZM55.2031 81.1172C54.3438 81.1172 53.6445 80.8359 53.1055 80.2734C52.5664 79.707 52.2969 78.9512 52.2969 78.0059V77.8066C52.2969 77.1777 52.416 76.6172 52.6543 76.125C52.8965 75.6289 53.2324 75.2422 53.6621 74.9648C54.0957 74.6836 54.5645 74.543 55.0684 74.543C55.8926 74.543 56.5332 74.8145 56.9902 75.3574C57.4473 75.9004 57.6758 76.6777 57.6758 77.6895V78.1406H53.3809C53.3965 78.7656 53.5781 79.2715 53.9258 79.6582C54.2773 80.041 54.7227 80.2324 55.2617 80.2324C55.6445 80.2324 55.9688 80.1543 56.2344 79.998C56.5 79.8418 56.7324 79.6348 56.9316 79.377L57.5938 79.8926C57.0625 80.709 56.2656 81.1172 55.2031 81.1172ZM55.0684 75.4336C54.6309 75.4336 54.2637 75.5938 53.9668 75.9141C53.6699 76.2305 53.4863 76.6758 53.416 77.25H56.5918V77.168C56.5605 76.6172 56.4121 76.1914 56.1465 75.8906C55.8809 75.5859 55.5215 75.4336 55.0684 75.4336ZM61.625 77.7715C61.625 77.1504 61.7461 76.5918 61.9883 76.0957C62.2344 75.5996 62.5742 75.2168 63.0078 74.9473C63.4453 74.6777 63.9434 74.543 64.502 74.543C65.3652 74.543 66.0625 74.8418 66.5938 75.4395C67.1289 76.0371 67.3965 76.832 67.3965 77.8242V77.9004C67.3965 78.5176 67.2773 79.0723 67.0391 79.5645C66.8047 80.0527 66.4668 80.4336 66.0254 80.707C65.5879 80.9805 65.084 81.1172 64.5137 81.1172C63.6543 81.1172 62.957 80.8184 62.4219 80.2207C61.8906 79.623 61.625 78.832 61.625 77.8477V77.7715ZM62.7148 77.9004C62.7148 78.6035 62.877 79.168 63.2012 79.5938C63.5293 80.0195 63.9668 80.2324 64.5137 80.2324C65.0645 80.2324 65.502 80.0176 65.8262 79.5879C66.1504 79.1543 66.3125 78.5488 66.3125 77.7715C66.3125 77.0762 66.1465 76.5137 65.8145 76.084C65.4863 75.6504 65.0488 75.4336 64.502 75.4336C63.9668 75.4336 63.5352 75.6465 63.207 76.0723C62.8789 76.498 62.7148 77.1074 62.7148 77.9004ZM69.2891 81V75.498H68.2871V74.6602H69.2891V74.0098C69.2891 73.3301 69.4707 72.8047 69.834 72.4336C70.1973 72.0625 70.7109 71.877 71.375 71.877C71.625 71.877 71.873 71.9102 72.1191 71.9766L72.0605 72.8555C71.877 72.8203 71.6816 72.8027 71.4746 72.8027C71.123 72.8027 70.8516 72.9062 70.6602 73.1133C70.4688 73.3164 70.373 73.6094 70.373 73.9922V74.6602H71.7266V75.498H70.373V81H69.2891ZM76.9297 74.6602L76.9648 75.457C77.4492 74.8477 78.082 74.543 78.8633 74.543C80.2031 74.543 80.8789 75.2988 80.8906 76.8105V81H79.8066V76.8047C79.8027 76.3477 79.6973 76.0098 79.4902 75.791C79.2871 75.5723 78.9688 75.4629 78.5352 75.4629C78.1836 75.4629 77.875 75.5566 77.6094 75.7441C77.3438 75.9316 77.1367 76.1777 76.9883 76.4824V81H75.9043V74.6602H76.9297ZM85.1562 81.1172C84.2969 81.1172 83.5977 80.8359 83.0586 80.2734C82.5195 79.707 82.25 78.9512 82.25 78.0059V77.8066C82.25 77.1777 82.3691 76.6172 82.6074 76.125C82.8496 75.6289 83.1855 75.2422 83.6152 74.9648C84.0488 74.6836 84.5176 74.543 85.0215 74.543C85.8457 74.543 86.4863 74.8145 86.9434 75.3574C87.4004 75.9004 87.6289 76.6777 87.6289 77.6895V78.1406H83.334C83.3496 78.7656 83.5312 79.2715 83.8789 79.6582C84.2305 80.041 84.6758 80.2324 85.2148 80.2324C85.5977 80.2324 85.9219 80.1543 86.1875 79.998C86.4531 79.8418 86.6855 79.6348 86.8848 79.377L87.5469 79.8926C87.0156 80.709 86.2188 81.1172 85.1562 81.1172ZM85.0215 75.4336C84.584 75.4336 84.2168 75.5938 83.9199 75.9141C83.623 76.2305 83.4395 76.6758 83.3691 77.25H86.5449V77.168C86.5137 76.6172 86.3652 76.1914 86.0996 75.8906C85.834 75.5859 85.4746 75.4336 85.0215 75.4336ZM94.502 79.5059L95.7207 74.6602H96.8047L94.959 81H94.0801L92.5391 76.1953L91.0391 81H90.1602L88.3203 74.6602H89.3984L90.6465 79.4062L92.123 74.6602H92.9961L94.502 79.5059ZM36.0137 91.9004C36.0137 92.8652 35.793 93.6426 35.3516 94.2324C34.9102 94.8223 34.3125 95.1172 33.5586 95.1172C32.7891 95.1172 32.1836 94.873 31.7422 94.3848V97.4375H30.6582V88.6602H31.6484L31.7012 89.3633C32.1426 88.8164 32.7559 88.543 33.541 88.543C34.3027 88.543 34.9043 88.8301 35.3457 89.4043C35.791 89.9785 36.0137 90.7773 36.0137 91.8008V91.9004ZM34.9297 91.7773C34.9297 91.0625 34.7773 90.498 34.4727 90.084C34.168 89.6699 33.75 89.4629 33.2188 89.4629C32.5625 89.4629 32.0703 89.7539 31.7422 90.3359V93.3652C32.0664 93.9434 32.5625 94.2324 33.2305 94.2324C33.75 94.2324 34.1621 94.0273 34.4668 93.6172C34.7754 93.2031 34.9297 92.5898 34.9297 91.7773ZM40.4609 89.6328C40.2969 89.6055 40.1191 89.5918 39.9277 89.5918C39.2168 89.5918 38.7344 89.8945 38.4805 90.5V95H37.3965V88.6602H38.4512L38.4688 89.3926C38.8242 88.8262 39.3281 88.543 39.9805 88.543C40.1914 88.543 40.3516 88.5703 40.4609 88.625V89.6328ZM41.0586 91.7715C41.0586 91.1504 41.1797 90.5918 41.4219 90.0957C41.668 89.5996 42.0078 89.2168 42.4414 88.9473C42.8789 88.6777 43.377 88.543 43.9355 88.543C44.7988 88.543 45.4961 88.8418 46.0273 89.4395C46.5625 90.0371 46.8301 90.832 46.8301 91.8242V91.9004C46.8301 92.5176 46.7109 93.0723 46.4727 93.5645C46.2383 94.0527 45.9004 94.4336 45.459 94.707C45.0215 94.9805 44.5176 95.1172 43.9473 95.1172C43.0879 95.1172 42.3906 94.8184 41.8555 94.2207C41.3242 93.623 41.0586 92.832 41.0586 91.8477V91.7715ZM42.1484 91.9004C42.1484 92.6035 42.3105 93.168 42.6348 93.5938C42.9629 94.0195 43.4004 94.2324 43.9473 94.2324C44.498 94.2324 44.9355 94.0176 45.2598 93.5879C45.584 93.1543 45.7461 92.5488 45.7461 91.7715C45.7461 91.0762 45.5801 90.5137 45.248 90.084C44.9199 89.6504 44.4824 89.4336 43.9355 89.4336C43.4004 89.4336 42.9688 89.6465 42.6406 90.0723C42.3125 90.498 42.1484 91.1074 42.1484 91.9004ZM49.3086 88.6602V95.7324C49.3086 96.9512 48.7559 97.5605 47.6504 97.5605C47.4121 97.5605 47.1914 97.5254 46.9883 97.4551V96.5879C47.1133 96.6191 47.2773 96.6348 47.4805 96.6348C47.7227 96.6348 47.9062 96.5684 48.0312 96.4355C48.1602 96.3066 48.2246 96.0801 48.2246 95.7559V88.6602H49.3086ZM48.1133 86.9785C48.1133 86.8066 48.166 86.6602 48.2715 86.5391C48.3809 86.4141 48.5391 86.3516 48.7461 86.3516C48.957 86.3516 49.1172 86.4121 49.2266 86.5332C49.3359 86.6543 49.3906 86.8027 49.3906 86.9785C49.3906 87.1543 49.3359 87.3008 49.2266 87.418C49.1172 87.5352 48.957 87.5938 48.7461 87.5938C48.5352 87.5938 48.377 87.5352 48.2715 87.418C48.166 87.3008 48.1133 87.1543 48.1133 86.9785ZM53.6914 95.1172C52.832 95.1172 52.1328 94.8359 51.5938 94.2734C51.0547 93.707 50.7852 92.9512 50.7852 92.0059V91.8066C50.7852 91.1777 50.9043 90.6172 51.1426 90.125C51.3848 89.6289 51.7207 89.2422 52.1504 88.9648C52.584 88.6836 53.0527 88.543 53.5566 88.543C54.3809 88.543 55.0215 88.8145 55.4785 89.3574C55.9355 89.9004 56.1641 90.6777 56.1641 91.6895V92.1406H51.8691C51.8848 92.7656 52.0664 93.2715 52.4141 93.6582C52.7656 94.041 53.2109 94.2324 53.75 94.2324C54.1328 94.2324 54.457 94.1543 54.7227 93.998C54.9883 93.8418 55.2207 93.6348 55.4199 93.377L56.082 93.8926C55.5508 94.709 54.7539 95.1172 53.6914 95.1172ZM53.5566 89.4336C53.1191 89.4336 52.752 89.5938 52.4551 89.9141C52.1582 90.2305 51.9746 90.6758 51.9043 91.25H55.0801V91.168C55.0488 90.6172 54.9004 90.1914 54.6348 89.8906C54.3691 89.5859 54.0098 89.4336 53.5566 89.4336ZM59.9668 94.2324C60.3535 94.2324 60.6914 94.1152 60.9805 93.8809C61.2695 93.6465 61.4297 93.3535 61.4609 93.002H62.4863C62.4668 93.3652 62.3418 93.7109 62.1113 94.0391C61.8809 94.3672 61.5723 94.6289 61.1855 94.8242C60.8027 95.0195 60.3965 95.1172 59.9668 95.1172C59.1035 95.1172 58.416 94.8301 57.9043 94.2559C57.3965 93.6777 57.1426 92.8887 57.1426 91.8887V91.707C57.1426 91.0898 57.2559 90.541 57.4824 90.0605C57.709 89.5801 58.0332 89.207 58.4551 88.9414C58.8809 88.6758 59.3828 88.543 59.9609 88.543C60.6719 88.543 61.2617 88.7559 61.7305 89.1816C62.2031 89.6074 62.4551 90.1602 62.4863 90.8398H61.4609C61.4297 90.4297 61.2734 90.0938 60.9922 89.832C60.7148 89.5664 60.3711 89.4336 59.9609 89.4336C59.4102 89.4336 58.9824 89.6328 58.6777 90.0312C58.377 90.4258 58.2266 90.998 58.2266 91.748V91.9531C58.2266 92.6836 58.377 93.2461 58.6777 93.6406C58.9785 94.0352 59.4082 94.2324 59.9668 94.2324ZM65.1758 87.125V88.6602H66.3594V89.498H65.1758V93.4297C65.1758 93.6836 65.2285 93.875 65.334 94.0039C65.4395 94.1289 65.6191 94.1914 65.873 94.1914C65.998 94.1914 66.1699 94.168 66.3887 94.1211V95C66.1035 95.0781 65.8262 95.1172 65.5566 95.1172C65.0723 95.1172 64.707 94.9707 64.4609 94.6777C64.2148 94.3848 64.0918 93.9688 64.0918 93.4297V89.498H62.9375V88.6602H64.0918V87.125H65.1758ZM71.3223 93.3184C71.3223 93.0254 71.2109 92.7988 70.9883 92.6387C70.7695 92.4746 70.3848 92.334 69.834 92.2168C69.2871 92.0996 68.8516 91.959 68.5273 91.7949C68.207 91.6309 67.9688 91.4355 67.8125 91.209C67.6602 90.9824 67.584 90.7129 67.584 90.4004C67.584 89.8809 67.8027 89.4414 68.2402 89.082C68.6816 88.7227 69.2441 88.543 69.9277 88.543C70.6465 88.543 71.2285 88.7285 71.6738 89.0996C72.123 89.4707 72.3477 89.9453 72.3477 90.5234H71.2578C71.2578 90.2266 71.1309 89.9707 70.877 89.7559C70.627 89.541 70.3105 89.4336 69.9277 89.4336C69.5332 89.4336 69.2246 89.5195 69.002 89.6914C68.7793 89.8633 68.668 90.0879 68.668 90.3652C68.668 90.627 68.7715 90.8242 68.9785 90.957C69.1855 91.0898 69.5586 91.2168 70.0977 91.3379C70.6406 91.459 71.0801 91.6035 71.416 91.7715C71.752 91.9395 72 92.1426 72.1602 92.3809C72.3242 92.6152 72.4062 92.9023 72.4062 93.2422C72.4062 93.8086 72.1797 94.2637 71.7266 94.6074C71.2734 94.9473 70.6855 95.1172 69.9629 95.1172C69.4551 95.1172 69.0059 95.0273 68.6152 94.8477C68.2246 94.668 67.918 94.418 67.6953 94.0977C67.4766 93.7734 67.3672 93.4238 67.3672 93.0488H68.4512C68.4707 93.4121 68.6152 93.7012 68.8848 93.916C69.1582 94.127 69.5176 94.2324 69.9629 94.2324C70.373 94.2324 70.7012 94.1504 70.9473 93.9863C71.1973 93.8184 71.3223 93.5957 71.3223 93.3184ZM73.8418 94.4316C73.8418 94.2441 73.8965 94.0879 74.0059 93.9629C74.1191 93.8379 74.2871 93.7754 74.5098 93.7754C74.7324 93.7754 74.9004 93.8379 75.0137 93.9629C75.1309 94.0879 75.1895 94.2441 75.1895 94.4316C75.1895 94.6113 75.1309 94.7617 75.0137 94.8828C74.9004 95.0039 74.7324 95.0645 74.5098 95.0645C74.2871 95.0645 74.1191 95.0039 74.0059 94.8828C73.8965 94.7617 73.8418 94.6113 73.8418 94.4316Z" fill="black"/>
<defs>
<clipPath id="clip0_5_786">
<rect width="30" height="30" fill="white" transform="translate(38 15)"/>
</clipPath>
</defs>
</svg>
