<svg width="106" height="112" viewBox="0 0 106 112" fill="none" xmlns="http://www.w3.org/2000/svg">
<circle cx="53" cy="30" r="30" fill="#E75353"/>
<g clip-path="url(#clip0_5_804)">
<path d="M53 32.6953C51.5461 32.6953 50.3633 33.8781 50.3633 35.332C50.3633 35.8174 50.7568 36.2109 51.2422 36.2109C51.7276 36.2109 52.1211 35.8174 52.1211 35.332C52.1211 34.8474 52.5154 34.4531 53 34.4531C53.4846 34.4531 53.8789 34.8474 53.8789 35.332C53.8789 35.7025 53.6449 36.0352 53.2965 36.1599C52.5935 36.4117 52.1211 37.0826 52.1211 37.8292V37.9688C52.1211 38.4541 52.5146 38.8477 53 38.8477C53.4854 38.8477 53.8789 38.4541 53.8789 37.9688V37.8292C53.8789 37.823 53.8832 37.8169 53.8893 37.8148C54.9345 37.4404 55.6367 36.4426 55.6367 35.332C55.6367 33.8781 54.4539 32.6953 53 32.6953Z" fill="white"/>
<path d="M53 41.4844C53.4854 41.4844 53.8789 41.0909 53.8789 40.6055C53.8789 40.1201 53.4854 39.7266 53 39.7266C52.5146 39.7266 52.1211 40.1201 52.1211 40.6055C52.1211 41.0909 52.5146 41.4844 53 41.4844Z" fill="white"/>
<path d="M67.5876 23.9817C66.7749 23.4725 64.9525 22.3307 64.4257 22.0006V15.8789C64.4257 15.3935 64.0322 15 63.5468 15H60.0312C59.5458 15 59.1523 15.3935 59.1523 15.8789V18.6965L53.4667 15.1341C53.1812 14.9553 52.8188 14.9553 52.5334 15.1341C51.9075 15.525 38.972 23.6311 38.4124 23.9817C38.001 24.2394 37.8765 24.7818 38.1343 25.1931C38.3919 25.6044 38.9344 25.729 39.3457 25.4713L39.8165 25.1762V40.6053C39.8165 41.0907 40.21 41.4842 40.6954 41.4842H46.4262C47.847 43.6026 50.2633 44.9998 53 44.9998C55.7367 44.9998 58.1531 43.6026 59.5738 41.4842H65.3046C65.79 41.4842 66.1835 41.0907 66.1835 40.6053V25.1762L66.6544 25.4713C67.0679 25.7304 67.6095 25.6022 67.8658 25.1931C68.1235 24.7818 67.999 24.2394 67.5876 23.9817ZM60.9101 16.7578H62.6679V20.8992L60.9101 19.7979V16.7578ZM53 43.242C49.6076 43.242 46.8477 40.482 46.8477 37.0897C46.8477 34.9206 47.9614 32.956 49.8269 31.8344C51.1392 31.0454 52.2264 29.9465 53 28.6481C53.7736 29.9464 54.8608 31.0454 56.1731 31.8344C58.0386 32.956 59.1523 34.9206 59.1523 37.0897C59.1523 40.482 56.3924 43.242 53 43.242ZM64.4257 39.7264H60.4577C60.7503 38.9013 60.9101 38.0139 60.9101 37.0897C60.9101 34.2425 59.3954 31.7207 57.0789 30.328C54.5148 28.7862 53.8766 26.3435 53.8339 26.2652C53.7143 25.9062 53.3784 25.664 53 25.664C52.6216 25.664 52.2857 25.9062 52.1662 26.2652C52.1461 26.3019 51.5072 28.7731 48.9211 30.328C46.604 31.7212 45.0899 34.2434 45.0899 37.0897C45.0899 38.0139 45.2498 38.9013 45.5424 39.7264H41.5743V24.0749L53 16.9161L64.4257 24.0749V39.7264Z" fill="white"/>
</g>
<path d="M11.5391 77.2324H7.95898V81H6.83398V72.4688H12.1191V73.3945H7.95898V76.3125H11.5391V77.2324ZM14.4746 81H13.3906V74.6602H14.4746V81ZM13.3027 72.9785C13.3027 72.8027 13.3555 72.6543 13.4609 72.5332C13.5703 72.4121 13.7305 72.3516 13.9414 72.3516C14.1523 72.3516 14.3125 72.4121 14.4219 72.5332C14.5312 72.6543 14.5859 72.8027 14.5859 72.9785C14.5859 73.1543 14.5312 73.3008 14.4219 73.418C14.3125 73.5352 14.1523 73.5938 13.9414 73.5938C13.7305 73.5938 13.5703 73.5352 13.4609 73.418C13.3555 73.3008 13.3027 73.1543 13.3027 72.9785ZM17.2402 74.6602L17.2754 75.457C17.7598 74.8477 18.3926 74.543 19.1738 74.543C20.5137 74.543 21.1895 75.2988 21.2012 76.8105V81H20.1172V76.8047C20.1133 76.3477 20.0078 76.0098 19.8008 75.791C19.5977 75.5723 19.2793 75.4629 18.8457 75.4629C18.4941 75.4629 18.1855 75.5566 17.9199 75.7441C17.6543 75.9316 17.4473 76.1777 17.2988 76.4824V81H16.2148V74.6602H17.2402ZM22.5723 77.7773C22.5723 76.8047 22.8027 76.0234 23.2637 75.4336C23.7246 74.8398 24.3281 74.543 25.0742 74.543C25.8164 74.543 26.4043 74.7969 26.8379 75.3047V72H27.9219V81H26.9258L26.873 80.3203C26.4395 80.8516 25.8359 81.1172 25.0625 81.1172C24.3281 81.1172 23.7285 80.8164 23.2637 80.2148C22.8027 79.6133 22.5723 78.8281 22.5723 77.8594V77.7773ZM23.6562 77.9004C23.6562 78.6191 23.8047 79.1816 24.1016 79.5879C24.3984 79.9941 24.8086 80.1973 25.332 80.1973C26.0195 80.1973 26.5215 79.8887 26.8379 79.2715V76.3594C26.5137 75.7617 26.0156 75.4629 25.3438 75.4629C24.8125 75.4629 24.3984 75.668 24.1016 76.0781C23.8047 76.4883 23.6562 77.0957 23.6562 77.9004ZM32.2988 77.7715C32.2988 77.1504 32.4199 76.5918 32.6621 76.0957C32.9082 75.5996 33.248 75.2168 33.6816 74.9473C34.1191 74.6777 34.6172 74.543 35.1758 74.543C36.0391 74.543 36.7363 74.8418 37.2676 75.4395C37.8027 76.0371 38.0703 76.832 38.0703 77.8242V77.9004C38.0703 78.5176 37.9512 79.0723 37.7129 79.5645C37.4785 80.0527 37.1406 80.4336 36.6992 80.707C36.2617 80.9805 35.7578 81.1172 35.1875 81.1172C34.3281 81.1172 33.6309 80.8184 33.0957 80.2207C32.5645 79.623 32.2988 78.832 32.2988 77.8477V77.7715ZM33.3887 77.9004C33.3887 78.6035 33.5508 79.168 33.875 79.5938C34.2031 80.0195 34.6406 80.2324 35.1875 80.2324C35.7383 80.2324 36.1758 80.0176 36.5 79.5879C36.8242 79.1543 36.9863 78.5488 36.9863 77.7715C36.9863 77.0762 36.8203 76.5137 36.4883 76.084C36.1602 75.6504 35.7227 75.4336 35.1758 75.4336C34.6406 75.4336 34.209 75.6465 33.8809 76.0723C33.5527 76.498 33.3887 77.1074 33.3887 77.9004ZM43.3438 80.373C42.9219 80.8691 42.3027 81.1172 41.4863 81.1172C40.8105 81.1172 40.2949 80.9219 39.9395 80.5312C39.5879 80.1367 39.4102 79.5547 39.4062 78.7852V74.6602H40.4902V78.7559C40.4902 79.7168 40.8809 80.1973 41.6621 80.1973C42.4902 80.1973 43.041 79.8887 43.3145 79.2715V74.6602H44.3984V81H43.3672L43.3438 80.373ZM47.5215 73.125V74.6602H48.7051V75.498H47.5215V79.4297C47.5215 79.6836 47.5742 79.875 47.6797 80.0039C47.7852 80.1289 47.9648 80.1914 48.2188 80.1914C48.3438 80.1914 48.5156 80.168 48.7344 80.1211V81C48.4492 81.0781 48.1719 81.1172 47.9023 81.1172C47.418 81.1172 47.0527 80.9707 46.8066 80.6777C46.5605 80.3848 46.4375 79.9688 46.4375 79.4297V75.498H45.2832V74.6602H46.4375V73.125H47.5215ZM54.4238 73.125V74.6602H55.6074V75.498H54.4238V79.4297C54.4238 79.6836 54.4766 79.875 54.582 80.0039C54.6875 80.1289 54.8672 80.1914 55.1211 80.1914C55.2461 80.1914 55.418 80.168 55.6367 80.1211V81C55.3516 81.0781 55.0742 81.1172 54.8047 81.1172C54.3203 81.1172 53.9551 80.9707 53.709 80.6777C53.4629 80.3848 53.3398 79.9688 53.3398 79.4297V75.498H52.1855V74.6602H53.3398V73.125H54.4238ZM57.9629 75.4277C58.4434 74.8379 59.0684 74.543 59.8379 74.543C61.1777 74.543 61.8535 75.2988 61.8652 76.8105V81H60.7812V76.8047C60.7773 76.3477 60.6719 76.0098 60.4648 75.791C60.2617 75.5723 59.9434 75.4629 59.5098 75.4629C59.1582 75.4629 58.8496 75.5566 58.584 75.7441C58.3184 75.9316 58.1113 76.1777 57.9629 76.4824V81H56.8789V72H57.9629V75.4277ZM66.1191 81.1172C65.2598 81.1172 64.5605 80.8359 64.0215 80.2734C63.4824 79.707 63.2129 78.9512 63.2129 78.0059V77.8066C63.2129 77.1777 63.332 76.6172 63.5703 76.125C63.8125 75.6289 64.1484 75.2422 64.5781 74.9648C65.0117 74.6836 65.4805 74.543 65.9844 74.543C66.8086 74.543 67.4492 74.8145 67.9062 75.3574C68.3633 75.9004 68.5918 76.6777 68.5918 77.6895V78.1406H64.2969C64.3125 78.7656 64.4941 79.2715 64.8418 79.6582C65.1934 80.041 65.6387 80.2324 66.1777 80.2324C66.5605 80.2324 66.8848 80.1543 67.1504 79.998C67.416 79.8418 67.6484 79.6348 67.8477 79.377L68.5098 79.8926C67.9785 80.709 67.1816 81.1172 66.1191 81.1172ZM65.9844 75.4336C65.5469 75.4336 65.1797 75.5938 64.8828 75.9141C64.5859 76.2305 64.4023 76.6758 64.332 77.25H67.5078V77.168C67.4766 76.6172 67.3281 76.1914 67.0625 75.8906C66.7969 75.5859 66.4375 75.4336 65.9844 75.4336ZM74.9199 79.5293L76.4902 74.6602H77.5977L75.3242 81H74.498L72.2012 74.6602H73.3086L74.9199 79.5293ZM82.4609 81C82.3984 80.875 82.3477 80.6523 82.3086 80.332C81.8047 80.8555 81.2031 81.1172 80.5039 81.1172C79.8789 81.1172 79.3652 80.9414 78.9629 80.5898C78.5645 80.2344 78.3652 79.7852 78.3652 79.2422C78.3652 78.582 78.6152 78.0703 79.1152 77.707C79.6191 77.3398 80.3262 77.1562 81.2363 77.1562H82.291V76.6582C82.291 76.2793 82.1777 75.9785 81.9512 75.7559C81.7246 75.5293 81.3906 75.416 80.9492 75.416C80.5625 75.416 80.2383 75.5137 79.9766 75.709C79.7148 75.9043 79.584 76.1406 79.584 76.418H78.4941C78.4941 76.1016 78.6055 75.7969 78.8281 75.5039C79.0547 75.207 79.3594 74.9727 79.7422 74.8008C80.1289 74.6289 80.5527 74.543 81.0137 74.543C81.7441 74.543 82.3164 74.7266 82.7305 75.0938C83.1445 75.457 83.3594 75.959 83.375 76.5996V79.5176C83.375 80.0996 83.4492 80.5625 83.5977 80.9062V81H82.4609ZM80.6621 80.1738C81.002 80.1738 81.3242 80.0859 81.6289 79.9102C81.9336 79.7344 82.1543 79.5059 82.291 79.2246V77.9238H81.4414C80.1133 77.9238 79.4492 78.3125 79.4492 79.0898C79.4492 79.4297 79.5625 79.6953 79.7891 79.8867C80.0156 80.0781 80.3066 80.1738 80.6621 80.1738ZM86.252 81H85.168V72H86.252V81ZM91.9062 80.373C91.4844 80.8691 90.8652 81.1172 90.0488 81.1172C89.373 81.1172 88.8574 80.9219 88.502 80.5312C88.1504 80.1367 87.9727 79.5547 87.9688 78.7852V74.6602H89.0527V78.7559C89.0527 79.7168 89.4434 80.1973 90.2246 80.1973C91.0527 80.1973 91.6035 79.8887 91.877 79.2715V74.6602H92.9609V81H91.9297L91.9062 80.373ZM97.2441 81.1172C96.3848 81.1172 95.6855 80.8359 95.1465 80.2734C94.6074 79.707 94.3379 78.9512 94.3379 78.0059V77.8066C94.3379 77.1777 94.457 76.6172 94.6953 76.125C94.9375 75.6289 95.2734 75.2422 95.7031 74.9648C96.1367 74.6836 96.6055 74.543 97.1094 74.543C97.9336 74.543 98.5742 74.8145 99.0312 75.3574C99.4883 75.9004 99.7168 76.6777 99.7168 77.6895V78.1406H95.4219C95.4375 78.7656 95.6191 79.2715 95.9668 79.6582C96.3184 80.041 96.7637 80.2324 97.3027 80.2324C97.6855 80.2324 98.0098 80.1543 98.2754 79.998C98.541 79.8418 98.7734 79.6348 98.9727 79.377L99.6348 79.8926C99.1035 80.709 98.3066 81.1172 97.2441 81.1172ZM97.1094 75.4336C96.6719 75.4336 96.3047 75.5938 96.0078 75.9141C95.7109 76.2305 95.5273 76.6758 95.457 77.25H98.6328V77.168C98.6016 76.6172 98.4531 76.1914 98.1875 75.8906C97.9219 75.5859 97.5625 75.4336 97.1094 75.4336ZM5.26367 91.7715C5.26367 91.1504 5.38477 90.5918 5.62695 90.0957C5.87305 89.5996 6.21289 89.2168 6.64648 88.9473C7.08398 88.6777 7.58203 88.543 8.14062 88.543C9.00391 88.543 9.70117 88.8418 10.2324 89.4395C10.7676 90.0371 11.0352 90.832 11.0352 91.8242V91.9004C11.0352 92.5176 10.916 93.0723 10.6777 93.5645C10.4434 94.0527 10.1055 94.4336 9.66406 94.707C9.22656 94.9805 8.72266 95.1172 8.15234 95.1172C7.29297 95.1172 6.5957 94.8184 6.06055 94.2207C5.5293 93.623 5.26367 92.832 5.26367 91.8477V91.7715ZM6.35352 91.9004C6.35352 92.6035 6.51562 93.168 6.83984 93.5938C7.16797 94.0195 7.60547 94.2324 8.15234 94.2324C8.70312 94.2324 9.14062 94.0176 9.46484 93.5879C9.78906 93.1543 9.95117 92.5488 9.95117 91.7715C9.95117 91.0762 9.78516 90.5137 9.45312 90.084C9.125 89.6504 8.6875 89.4336 8.14062 89.4336C7.60547 89.4336 7.17383 89.6465 6.8457 90.0723C6.51758 90.498 6.35352 91.1074 6.35352 91.9004ZM12.9277 95V89.498H11.9258V88.6602H12.9277V88.0098C12.9277 87.3301 13.1094 86.8047 13.4727 86.4336C13.8359 86.0625 14.3496 85.877 15.0137 85.877C15.2637 85.877 15.5117 85.9102 15.7578 85.9766L15.6992 86.8555C15.5156 86.8203 15.3203 86.8027 15.1133 86.8027C14.7617 86.8027 14.4902 86.9062 14.2988 87.1133C14.1074 87.3164 14.0117 87.6094 14.0117 87.9922V88.6602H15.3652V89.498H14.0117V95H12.9277ZM21.6172 93.4121L23.0938 88.6602H24.2539L21.7051 95.9785C21.3105 97.0332 20.6836 97.5605 19.8242 97.5605L19.6191 97.543L19.2148 97.4668V96.5879L19.5078 96.6113C19.875 96.6113 20.1602 96.5371 20.3633 96.3887C20.5703 96.2402 20.7402 95.9688 20.873 95.5742L21.1133 94.9297L18.8516 88.6602H20.0352L21.6172 93.4121ZM24.8457 91.7715C24.8457 91.1504 24.9668 90.5918 25.209 90.0957C25.4551 89.5996 25.7949 89.2168 26.2285 88.9473C26.666 88.6777 27.1641 88.543 27.7227 88.543C28.5859 88.543 29.2832 88.8418 29.8145 89.4395C30.3496 90.0371 30.6172 90.832 30.6172 91.8242V91.9004C30.6172 92.5176 30.498 93.0723 30.2598 93.5645C30.0254 94.0527 29.6875 94.4336 29.2461 94.707C28.8086 94.9805 28.3047 95.1172 27.7344 95.1172C26.875 95.1172 26.1777 94.8184 25.6426 94.2207C25.1113 93.623 24.8457 92.832 24.8457 91.8477V91.7715ZM25.9355 91.9004C25.9355 92.6035 26.0977 93.168 26.4219 93.5938C26.75 94.0195 27.1875 94.2324 27.7344 94.2324C28.2852 94.2324 28.7227 94.0176 29.0469 93.5879C29.3711 93.1543 29.5332 92.5488 29.5332 91.7715C29.5332 91.0762 29.3672 90.5137 29.0352 90.084C28.707 89.6504 28.2695 89.4336 27.7227 89.4336C27.1875 89.4336 26.7559 89.6465 26.4277 90.0723C26.0996 90.498 25.9355 91.1074 25.9355 91.9004ZM35.8906 94.373C35.4688 94.8691 34.8496 95.1172 34.0332 95.1172C33.3574 95.1172 32.8418 94.9219 32.4863 94.5312C32.1348 94.1367 31.957 93.5547 31.9531 92.7852V88.6602H33.0371V92.7559C33.0371 93.7168 33.4277 94.1973 34.209 94.1973C35.0371 94.1973 35.5879 93.8887 35.8613 93.2715V88.6602H36.9453V95H35.9141L35.8906 94.373ZM41.6621 89.6328C41.498 89.6055 41.3203 89.5918 41.1289 89.5918C40.418 89.5918 39.9355 89.8945 39.6816 90.5V95H38.5977V88.6602H39.6523L39.6699 89.3926C40.0254 88.8262 40.5293 88.543 41.1816 88.543C41.3926 88.543 41.5527 88.5703 41.6621 88.625V89.6328ZM46.7246 89.4277C47.2051 88.8379 47.8301 88.543 48.5996 88.543C49.9395 88.543 50.6152 89.2988 50.627 90.8105V95H49.543V90.8047C49.5391 90.3477 49.4336 90.0098 49.2266 89.791C49.0234 89.5723 48.7051 89.4629 48.2715 89.4629C47.9199 89.4629 47.6113 89.5566 47.3457 89.7441C47.0801 89.9316 46.873 90.1777 46.7246 90.4824V95H45.6406V86H46.7246V89.4277ZM51.9629 91.7715C51.9629 91.1504 52.084 90.5918 52.3262 90.0957C52.5723 89.5996 52.9121 89.2168 53.3457 88.9473C53.7832 88.6777 54.2812 88.543 54.8398 88.543C55.7031 88.543 56.4004 88.8418 56.9316 89.4395C57.4668 90.0371 57.7344 90.832 57.7344 91.8242V91.9004C57.7344 92.5176 57.6152 93.0723 57.377 93.5645C57.1426 94.0527 56.8047 94.4336 56.3633 94.707C55.9258 94.9805 55.4219 95.1172 54.8516 95.1172C53.9922 95.1172 53.2949 94.8184 52.7598 94.2207C52.2285 93.623 51.9629 92.832 51.9629 91.8477V91.7715ZM53.0527 91.9004C53.0527 92.6035 53.2148 93.168 53.5391 93.5938C53.8672 94.0195 54.3047 94.2324 54.8516 94.2324C55.4023 94.2324 55.8398 94.0176 56.1641 93.5879C56.4883 93.1543 56.6504 92.5488 56.6504 91.7715C56.6504 91.0762 56.4844 90.5137 56.1523 90.084C55.8242 89.6504 55.3867 89.4336 54.8398 89.4336C54.3047 89.4336 53.873 89.6465 53.5449 90.0723C53.2168 90.498 53.0527 91.1074 53.0527 91.9004ZM63.0078 94.373C62.5859 94.8691 61.9668 95.1172 61.1504 95.1172C60.4746 95.1172 59.959 94.9219 59.6035 94.5312C59.252 94.1367 59.0742 93.5547 59.0703 92.7852V88.6602H60.1543V92.7559C60.1543 93.7168 60.5449 94.1973 61.3262 94.1973C62.1543 94.1973 62.7051 93.8887 62.9785 93.2715V88.6602H64.0625V95H63.0312L63.0078 94.373ZM69.4062 93.3184C69.4062 93.0254 69.2949 92.7988 69.0723 92.6387C68.8535 92.4746 68.4688 92.334 67.918 92.2168C67.3711 92.0996 66.9355 91.959 66.6113 91.7949C66.291 91.6309 66.0527 91.4355 65.8965 91.209C65.7441 90.9824 65.668 90.7129 65.668 90.4004C65.668 89.8809 65.8867 89.4414 66.3242 89.082C66.7656 88.7227 67.3281 88.543 68.0117 88.543C68.7305 88.543 69.3125 88.7285 69.7578 89.0996C70.207 89.4707 70.4316 89.9453 70.4316 90.5234H69.3418C69.3418 90.2266 69.2148 89.9707 68.9609 89.7559C68.7109 89.541 68.3945 89.4336 68.0117 89.4336C67.6172 89.4336 67.3086 89.5195 67.0859 89.6914C66.8633 89.8633 66.752 90.0879 66.752 90.3652C66.752 90.627 66.8555 90.8242 67.0625 90.957C67.2695 91.0898 67.6426 91.2168 68.1816 91.3379C68.7246 91.459 69.1641 91.6035 69.5 91.7715C69.8359 91.9395 70.084 92.1426 70.2441 92.3809C70.4082 92.6152 70.4902 92.9023 70.4902 93.2422C70.4902 93.8086 70.2637 94.2637 69.8105 94.6074C69.3574 94.9473 68.7695 95.1172 68.0469 95.1172C67.5391 95.1172 67.0898 95.0273 66.6992 94.8477C66.3086 94.668 66.002 94.418 65.7793 94.0977C65.5605 93.7734 65.4512 93.4238 65.4512 93.0488H66.5352C66.5547 93.4121 66.6992 93.7012 66.9688 93.916C67.2422 94.127 67.6016 94.2324 68.0469 94.2324C68.457 94.2324 68.7852 94.1504 69.0312 93.9863C69.2812 93.8184 69.4062 93.5957 69.4062 93.3184ZM74.5332 95.1172C73.6738 95.1172 72.9746 94.8359 72.4355 94.2734C71.8965 93.707 71.627 92.9512 71.627 92.0059V91.8066C71.627 91.1777 71.7461 90.6172 71.9844 90.125C72.2266 89.6289 72.5625 89.2422 72.9922 88.9648C73.4258 88.6836 73.8945 88.543 74.3984 88.543C75.2227 88.543 75.8633 88.8145 76.3203 89.3574C76.7773 89.9004 77.0059 90.6777 77.0059 91.6895V92.1406H72.7109C72.7266 92.7656 72.9082 93.2715 73.2559 93.6582C73.6074 94.041 74.0527 94.2324 74.5918 94.2324C74.9746 94.2324 75.2988 94.1543 75.5645 93.998C75.8301 93.8418 76.0625 93.6348 76.2617 93.377L76.9238 93.8926C76.3926 94.709 75.5957 95.1172 74.5332 95.1172ZM74.3984 89.4336C73.9609 89.4336 73.5938 89.5938 73.2969 89.9141C73 90.2305 72.8164 90.6758 72.7461 91.25H75.9219V91.168C75.8906 90.6172 75.7422 90.1914 75.4766 89.8906C75.2109 89.5859 74.8516 89.4336 74.3984 89.4336ZM81.7754 95V89.498H80.7734V88.6602H81.7754V88.0098C81.7754 87.3301 81.957 86.8047 82.3203 86.4336C82.6836 86.0625 83.1973 85.877 83.8613 85.877C84.1113 85.877 84.3594 85.9102 84.6055 85.9766L84.5469 86.8555C84.3633 86.8203 84.168 86.8027 83.9609 86.8027C83.6094 86.8027 83.3379 86.9062 83.1465 87.1133C82.9551 87.3164 82.8594 87.6094 82.8594 87.9922V88.6602H84.2129V89.498H82.8594V95H81.7754ZM88.4785 89.6328C88.3145 89.6055 88.1367 89.5918 87.9453 89.5918C87.2344 89.5918 86.752 89.8945 86.498 90.5V95H85.4141V88.6602H86.4688L86.4863 89.3926C86.8418 88.8262 87.3457 88.543 87.998 88.543C88.209 88.543 88.3691 88.5703 88.4785 88.625V89.6328ZM91.9941 95.1172C91.1348 95.1172 90.4355 94.8359 89.8965 94.2734C89.3574 93.707 89.0879 92.9512 89.0879 92.0059V91.8066C89.0879 91.1777 89.207 90.6172 89.4453 90.125C89.6875 89.6289 90.0234 89.2422 90.4531 88.9648C90.8867 88.6836 91.3555 88.543 91.8594 88.543C92.6836 88.543 93.3242 88.8145 93.7812 89.3574C94.2383 89.9004 94.4668 90.6777 94.4668 91.6895V92.1406H90.1719C90.1875 92.7656 90.3691 93.2715 90.7168 93.6582C91.0684 94.041 91.5137 94.2324 92.0527 94.2324C92.4355 94.2324 92.7598 94.1543 93.0254 93.998C93.291 93.8418 93.5234 93.6348 93.7227 93.377L94.3848 93.8926C93.8535 94.709 93.0566 95.1172 91.9941 95.1172ZM91.8594 89.4336C91.4219 89.4336 91.0547 89.5938 90.7578 89.9141C90.4609 90.2305 90.2773 90.6758 90.207 91.25H93.3828V91.168C93.3516 90.6172 93.2031 90.1914 92.9375 89.8906C92.6719 89.5859 92.3125 89.4336 91.8594 89.4336ZM98.3574 95.1172C97.498 95.1172 96.7988 94.8359 96.2598 94.2734C95.7207 93.707 95.4512 92.9512 95.4512 92.0059V91.8066C95.4512 91.1777 95.5703 90.6172 95.8086 90.125C96.0508 89.6289 96.3867 89.2422 96.8164 88.9648C97.25 88.6836 97.7188 88.543 98.2227 88.543C99.0469 88.543 99.6875 88.8145 100.145 89.3574C100.602 89.9004 100.83 90.6777 100.83 91.6895V92.1406H96.5352C96.5508 92.7656 96.7324 93.2715 97.0801 93.6582C97.4316 94.041 97.877 94.2324 98.416 94.2324C98.7988 94.2324 99.123 94.1543 99.3887 93.998C99.6543 93.8418 99.8867 93.6348 100.086 93.377L100.748 93.8926C100.217 94.709 99.4199 95.1172 98.3574 95.1172ZM98.2227 89.4336C97.7852 89.4336 97.418 89.5938 97.1211 89.9141C96.8242 90.2305 96.6406 90.6758 96.5703 91.25H99.7461V91.168C99.7148 90.6172 99.5664 90.1914 99.3008 89.8906C99.0352 89.5859 98.6758 89.4336 98.2227 89.4336ZM26.7207 105.771C26.7207 105.15 26.8418 104.592 27.084 104.096C27.3301 103.6 27.6699 103.217 28.1035 102.947C28.541 102.678 29.0391 102.543 29.5977 102.543C30.4609 102.543 31.1582 102.842 31.6895 103.439C32.2246 104.037 32.4922 104.832 32.4922 105.824V105.9C32.4922 106.518 32.373 107.072 32.1348 107.564C31.9004 108.053 31.5625 108.434 31.1211 108.707C30.6836 108.98 30.1797 109.117 29.6094 109.117C28.75 109.117 28.0527 108.818 27.5176 108.221C26.9863 107.623 26.7207 106.832 26.7207 105.848V105.771ZM27.8105 105.9C27.8105 106.604 27.9727 107.168 28.2969 107.594C28.625 108.02 29.0625 108.232 29.6094 108.232C30.1602 108.232 30.5977 108.018 30.9219 107.588C31.2461 107.154 31.4082 106.549 31.4082 105.771C31.4082 105.076 31.2422 104.514 30.9102 104.084C30.582 103.65 30.1445 103.434 29.5977 103.434C29.0625 103.434 28.6309 103.646 28.3027 104.072C27.9746 104.498 27.8105 105.107 27.8105 105.9ZM34.3848 109V103.498H33.3828V102.66H34.3848V102.01C34.3848 101.33 34.5664 100.805 34.9297 100.434C35.293 100.062 35.8066 99.877 36.4707 99.877C36.7207 99.877 36.9688 99.9102 37.2148 99.9766L37.1562 100.855C36.9727 100.82 36.7773 100.803 36.5703 100.803C36.2188 100.803 35.9473 100.906 35.7559 101.113C35.5645 101.316 35.4688 101.609 35.4688 101.992V102.66H36.8223V103.498H35.4688V109H34.3848ZM43.543 108.232C43.9297 108.232 44.2676 108.115 44.5566 107.881C44.8457 107.646 45.0059 107.354 45.0371 107.002H46.0625C46.043 107.365 45.918 107.711 45.6875 108.039C45.457 108.367 45.1484 108.629 44.7617 108.824C44.3789 109.02 43.9727 109.117 43.543 109.117C42.6797 109.117 41.9922 108.83 41.4805 108.256C40.9727 107.678 40.7188 106.889 40.7188 105.889V105.707C40.7188 105.09 40.832 104.541 41.0586 104.061C41.2852 103.58 41.6094 103.207 42.0312 102.941C42.457 102.676 42.959 102.543 43.5371 102.543C44.248 102.543 44.8379 102.756 45.3066 103.182C45.7793 103.607 46.0312 104.16 46.0625 104.84H45.0371C45.0059 104.43 44.8496 104.094 44.5684 103.832C44.291 103.566 43.9473 103.434 43.5371 103.434C42.9863 103.434 42.5586 103.633 42.2539 104.031C41.9531 104.426 41.8027 104.998 41.8027 105.748V105.953C41.8027 106.684 41.9531 107.246 42.2539 107.641C42.5547 108.035 42.9844 108.232 43.543 108.232ZM48.3652 103.428C48.8457 102.838 49.4707 102.543 50.2402 102.543C51.5801 102.543 52.2559 103.299 52.2676 104.811V109H51.1836V104.805C51.1797 104.348 51.0742 104.01 50.8672 103.791C50.6641 103.572 50.3457 103.463 49.9121 103.463C49.5605 103.463 49.252 103.557 48.9863 103.744C48.7207 103.932 48.5137 104.178 48.3652 104.482V109H47.2812V100H48.3652V103.428ZM57.8047 109C57.7422 108.875 57.6914 108.652 57.6523 108.332C57.1484 108.855 56.5469 109.117 55.8477 109.117C55.2227 109.117 54.709 108.941 54.3066 108.59C53.9082 108.234 53.709 107.785 53.709 107.242C53.709 106.582 53.959 106.07 54.459 105.707C54.9629 105.34 55.6699 105.156 56.5801 105.156H57.6348V104.658C57.6348 104.279 57.5215 103.979 57.2949 103.756C57.0684 103.529 56.7344 103.416 56.293 103.416C55.9062 103.416 55.582 103.514 55.3203 103.709C55.0586 103.904 54.9277 104.141 54.9277 104.418H53.8379C53.8379 104.102 53.9492 103.797 54.1719 103.504C54.3984 103.207 54.7031 102.973 55.0859 102.801C55.4727 102.629 55.8965 102.543 56.3574 102.543C57.0879 102.543 57.6602 102.727 58.0742 103.094C58.4883 103.457 58.7031 103.959 58.7188 104.6V107.518C58.7188 108.1 58.793 108.562 58.9414 108.906V109H57.8047ZM56.0059 108.174C56.3457 108.174 56.668 108.086 56.9727 107.91C57.2773 107.734 57.498 107.506 57.6348 107.225V105.924H56.7852C55.457 105.924 54.793 106.312 54.793 107.09C54.793 107.43 54.9062 107.695 55.1328 107.887C55.3594 108.078 55.6504 108.174 56.0059 108.174ZM63.4824 103.633C63.3184 103.605 63.1406 103.592 62.9492 103.592C62.2383 103.592 61.7559 103.895 61.502 104.5V109H60.418V102.66H61.4727L61.4902 103.393C61.8457 102.826 62.3496 102.543 63.002 102.543C63.2129 102.543 63.373 102.57 63.4824 102.625V103.633ZM64.1094 105.777C64.1094 104.789 64.3379 104.004 64.7949 103.422C65.252 102.836 65.8574 102.543 66.6113 102.543C67.3848 102.543 67.9883 102.816 68.4219 103.363L68.4746 102.66H69.4648V108.848C69.4648 109.668 69.2207 110.314 68.7324 110.787C68.248 111.26 67.5957 111.496 66.7754 111.496C66.3184 111.496 65.8711 111.398 65.4336 111.203C64.9961 111.008 64.6621 110.74 64.4316 110.4L64.9941 109.75C65.459 110.324 66.0273 110.611 66.6992 110.611C67.2266 110.611 67.6367 110.463 67.9297 110.166C68.2266 109.869 68.375 109.451 68.375 108.912V108.367C67.9414 108.867 67.3496 109.117 66.5996 109.117C65.8574 109.117 65.2559 108.818 64.7949 108.221C64.3379 107.623 64.1094 106.809 64.1094 105.777ZM65.1992 105.9C65.1992 106.615 65.3457 107.178 65.6387 107.588C65.9316 107.994 66.3418 108.197 66.8691 108.197C67.5527 108.197 68.0547 107.887 68.375 107.266V104.371C68.043 103.766 67.5449 103.463 66.8809 103.463C66.3535 103.463 65.9414 103.668 65.6445 104.078C65.3477 104.488 65.1992 105.096 65.1992 105.9ZM73.7363 109.117C72.877 109.117 72.1777 108.836 71.6387 108.273C71.0996 107.707 70.8301 106.951 70.8301 106.006V105.807C70.8301 105.178 70.9492 104.617 71.1875 104.125C71.4297 103.629 71.7656 103.242 72.1953 102.965C72.6289 102.684 73.0977 102.543 73.6016 102.543C74.4258 102.543 75.0664 102.814 75.5234 103.357C75.9805 103.9 76.209 104.678 76.209 105.689V106.141H71.9141C71.9297 106.766 72.1113 107.271 72.459 107.658C72.8105 108.041 73.2559 108.232 73.7949 108.232C74.1777 108.232 74.502 108.154 74.7676 107.998C75.0332 107.842 75.2656 107.635 75.4648 107.377L76.127 107.893C75.5957 108.709 74.7988 109.117 73.7363 109.117ZM73.6016 103.434C73.1641 103.434 72.7969 103.594 72.5 103.914C72.2031 104.23 72.0195 104.676 71.9492 105.25H75.125V105.168C75.0938 104.617 74.9453 104.191 74.6797 103.891C74.4141 103.586 74.0547 103.434 73.6016 103.434ZM77.4922 108.432C77.4922 108.244 77.5469 108.088 77.6562 107.963C77.7695 107.838 77.9375 107.775 78.1602 107.775C78.3828 107.775 78.5508 107.838 78.6641 107.963C78.7812 108.088 78.8398 108.244 78.8398 108.432C78.8398 108.611 78.7812 108.762 78.6641 108.883C78.5508 109.004 78.3828 109.064 78.1602 109.064C77.9375 109.064 77.7695 109.004 77.6562 108.883C77.5469 108.762 77.4922 108.611 77.4922 108.432Z" fill="black"/>
<defs>
<clipPath id="clip0_5_804">
<rect width="30" height="30" fill="white" transform="translate(38 15)"/>
</clipPath>
</defs>
</svg>
