<svg width="25" height="26" viewBox="0 0 25 26" fill="none" xmlns="http://www.w3.org/2000/svg">
<path d="M12.5 0.500488C5.59716 0.500488 0 6.09655 0 12.9999C0 19.9033 5.59661 25.4994 12.5 25.4994C19.4039 25.4994 25 19.9033 25 12.9999C25 6.09655 19.4039 0.500488 12.5 0.500488ZM12.5 4.23797C14.7841 4.23797 16.635 6.08941 16.635 8.37242C16.635 10.656 14.7841 12.5069 12.5 12.5069C10.217 12.5069 8.36609 10.656 8.36609 8.37242C8.36609 6.08941 10.217 4.23797 12.5 4.23797ZM12.4973 22.2314C10.2192 22.2314 8.13274 21.4017 6.52343 20.0285C6.1314 19.6941 5.90519 19.2038 5.90519 18.6893C5.90519 16.3739 7.77914 14.5208 10.0951 14.5208H14.906C17.2225 14.5208 19.0893 16.3739 19.0893 18.6893C19.0893 19.2044 18.8642 19.6936 18.4716 20.028C16.8629 21.4017 14.7759 22.2314 12.4973 22.2314Z" fill="black"/>
</svg>
